<svg xmlns="http://www.w3.org/2000/svg" xmlns:xlink="http://www.w3.org/1999/xlink" width="288" height="164" viewBox="0 0 288 164">
  <defs>
    <rect id="exp_bear_in_kitchen-a" width="288" height="164"/>
    <path id="exp_bear_in_kitchen-c" d="M13.2068243,2.31896192 C16.3831572,0.834534362 19.9624765,2.50821586e-12 23.7487437,2.50821586e-12 C34.7953029,2.50821586e-12 44.0803227,7.10355515 46.7353697,16.7252803 C45.4980934,15.4383502 44.1870272,13.2090117 43.1179575,14.9910112 C42.0234862,16.8153518 38.821985,20.0671275 36.6330425,18.87765 C34.4440999,17.6881724 33.5170726,16.4184462 31.0751548,16.8153518 C28.6332371,17.2122575 24.9277594,18.87765 22.9065897,14.1188103 C18.8639214,12.6910654 15.4949763,11.817935 15.1584436,9.91458502 C14.821911,8.01123505 15.9167112,6.02825608 14.821911,5.31438365 C13.8605096,4.68749494 12.3146228,3.50962462 13.2068243,2.31896192 Z"/>
    <path id="exp_bear_in_kitchen-d" d="M0.621650224,0.000340764529 L190.228082,0.000340764529 C190.541602,0.000340764529 190.795759,0.254498457 190.795759,0.56801786 L190.795759,44.8463263 C190.795759,45.1598457 190.541602,45.4140034 190.228082,45.4140034 L0.621650224,45.4140034 C0.308130821,45.4140034 0.0539731287,45.1598457 0.0539731287,44.8463263 L0.0539731287,0.56801786 C0.0539731287,0.254498457 0.308130821,0.000340764529 0.621650224,0.000340764529 Z"/>
    <path id="exp_bear_in_kitchen-e" d="M0.621650224,-2.27036762 L190.228082,-2.27036762 C190.541602,-2.27036762 190.795759,-2.01620992 190.795759,-1.70269052 L190.795759,9.65051062 C190.795759,9.96403002 190.541602,10.2181877 190.228082,10.2181877 L0.621650224,10.2181877 C0.308130821,10.2181877 0.0539731287,9.96403002 0.0539731287,9.65051062 L0.0539731287,-1.70269052 C0.0539731287,-2.01620992 0.308130821,-2.27036762 0.621650224,-2.27036762 Z"/>
  </defs>
  <g fill="none" fill-rule="evenodd">
    <mask id="exp_bear_in_kitchen-b" fill="#fff">
      <use xlink:href="#exp_bear_in_kitchen-a"/>
    </mask>
    <use fill="#FFF" xlink:href="#exp_bear_in_kitchen-a"/>
    <g mask="url(#exp_bear_in_kitchen-b)">
      <g transform="translate(42.5 2)">
        <g transform="rotate(2 -2663.25 591.64)">
          <rect width="26.771" height="86.803" x="9.515" y="2.336" fill="#975E3A" rx="13.386" transform="rotate(13 22.901 45.737)"/>
          <rect width="13.888" height="24.939" x="2.388" y="68.618" fill="#975E3A" rx="6.944"/>
          <rect width="26.771" height="42.942" x="13.964" y="2.898" fill="#E2E2E2" rx="11.492" transform="rotate(13 27.35 24.368)"/>
          <rect width="25.722" height="14" x="5.982" y="34.57" fill="#D2D2D2" rx="2.394" transform="rotate(-161 18.843 41.57)"/>
        </g>
        <rect width="22.986" height="61.388" x="45.306" y="135.33" fill="#975E3A"/>
        <ellipse cx="95.349" cy="36.293" fill="#A56841" rx="7.423" ry="7.434"/>
        <rect width="22.986" height="61.388" x="79.307" y="135.33" fill="#975E3A"/>
        <path fill="#A56841" stroke="#A56841" stroke-linejoin="round" stroke-width="1.437" d="M65.8981606,42.2884224 C67.23288,38.9172285 70.5182132,36.5332728 74.3595207,36.5332728 C78.2008283,36.5332728 81.4861615,38.9172285 82.8208809,42.2884224 L65.8981606,42.2884224 Z" transform="rotate(-80 74.36 39.41)"/>
        <path fill="#A56841" stroke="#A56841" stroke-linejoin="round" stroke-width="1.437" d="M41.9540467,50.4415511 C43.2887661,47.0703572 46.5740993,44.6864014 50.4154068,44.6864014 C54.2567144,44.6864014 57.5420476,47.0703572 58.876767,50.4415511 L41.9540467,50.4415511 Z"/>
        <path fill="#A56841" stroke="#A56841" stroke-linejoin="round" stroke-width="1.437" d="M138.209385,68.6661916 C139.544104,65.2949977 142.829437,62.911042 146.670745,62.911042 C150.512052,62.911042 153.797385,65.2949977 155.132105,68.6661916 L138.209385,68.6661916 Z" transform="rotate(143 146.67 65.789)"/>
        <rect width="56.987" height="84.409" x="45.306" y="33.656" fill="#A56841" rx="19.154"/>
        <path fill="#A56841" d="M73.7997182,86.3379403 L73.7997182,86.3379403 C92.9744731,86.3379403 108.518683,101.88215 108.518683,121.056905 L108.518683,164.615229 C108.518683,175.193667 99.9431655,183.769185 89.3647282,183.769185 L58.2347081,183.769185 C47.6562708,183.769185 39.080753,175.193667 39.080753,164.615229 L39.080753,121.056905 C39.080753,101.88215 54.6249632,86.3379403 73.7997182,86.3379403 Z"/>
        <path fill="#CE9969" d="M65.1958915,52.8395301 L66.6004297,52.8395301 C72.5600822,52.8395301 77.3913352,57.6707831 77.3913352,63.6304357 L77.3913352,63.6304357 C77.3913352,69.5900883 72.5600822,74.4213413 66.6004297,74.4213413 L65.1958915,74.4213413 C59.2362389,74.4213413 54.4049859,69.5900883 54.4049859,63.6304357 L54.4049859,63.6304357 C54.4049859,57.6707831 59.2362389,52.8395301 65.1958915,52.8395301 Z" transform="matrix(1 0 0 -1 0 127.26)"/>
        <path fill="#CE9969" stroke="#CE9969" stroke-linejoin="round" stroke-width="1.437" d="M69.7615191,71.0616446 C69.3728328,71.7265236 68.865232,72.3369326 68.2415444,72.8602685 C66.0126423,74.7305395 62.946022,74.947605 60.529571,73.6427545 L63.605618,71.0616446 L69.7615191,71.0616446 Z" transform="rotate(-24 65.146 72.767)"/>
        <rect width="19.155" height="18.704" x="76.912" y="37.972" fill="#B8764C" rx="6.704"/>
        <rect width="50.762" height="41.725" x="45.306" y="98.881" fill="#B8764C" rx="20.862"/>
        <rect width="19.155" height="16.786" x="61.109" y="130.534" fill="#B8764C" rx="8.393"/>
        <rect width="19.155" height="18.704" x="52.011" y="37.972" fill="#B8764C" rx="6.704"/>
        <rect width="4.31" height="6.714" x="84.096" y="44.686" fill="#714B33" rx="2.155"/>
        <rect width="4.31" height="6.714" x="59.673" y="44.686" fill="#714B33" rx="2.155"/>
        <path stroke="#B8764C" stroke-linecap="round" stroke-linejoin="round" stroke-width="2.873" d="M58.5390411,49.4228475 C60.4036194,49.2027856 61.8938682,49.8510974 63.0097874,51.3677828"/>
        <path stroke="#B8764C" stroke-linecap="round" stroke-linejoin="round" stroke-width="2.873" d="M86.3142132,49.4228475 C88.1787915,49.2027856 89.6690403,49.8510974 90.7849595,51.3677828" transform="matrix(-1 0 0 1 177.1 0)"/>
        <path fill="#FFF" d="M64.4615137 65.309021L69.2503365 65.309021 69.2503365 66.751376C69.2503365 68.0737729 68.178322 69.1457874 66.8559251 69.1457874L66.8559251 69.1457874C65.5335282 69.1457874 64.4615137 68.0737729 64.4615137 66.751376L64.4615137 65.309021zM78.3490998 65.309021L83.1379226 65.309021 83.1379226 66.751376C83.1379226 68.0737729 82.0659081 69.1457874 80.7435112 69.1457874L80.7435112 69.1457874C79.4211143 69.1457874 78.3490998 68.0737729 78.3490998 66.751376L78.3490998 65.309021z"/>
        <g transform="rotate(-23 58.496 -53.233)">
          <path fill="#F33F3F" d="M8.47916771,22.5410028 L37.9724133,22.5410028 C38.4236582,22.5410028 38.7894645,22.9068091 38.7894645,23.358054 L38.7894645,31.7954634 C38.7894645,32.2467084 38.4236582,32.6125147 37.9724133,32.6125147 L8.47916771,32.6125147 C8.02792276,32.6125147 7.66211645,32.2467084 7.66211645,31.7954634 L7.66211645,23.358054 C7.66211645,22.9068091 8.02792276,22.5410028 8.47916771,22.5410028 Z"/>
          <rect width="37.832" height="14.867" x="4.31" y="4.796" fill="#FC4848" rx="7.434" transform="rotate(-15 23.226 12.23)"/>
          <path fill="#FC4848" d="M6.47454335,11.9898951 L40.4559199,11.9898951 C44.0317114,11.9898951 46.9304632,14.8886469 46.9304632,18.4644384 L46.9304632,18.4644384 C46.9304632,22.04023 44.0317114,24.9389818 40.4559199,24.9389818 L6.47454335,24.9389818 C2.8987518,24.9389818 -4.2194656e-14,22.04023 -4.26325641e-14,18.4644384 L-4.26325641e-14,18.4644384 C-4.30704723e-14,14.8886469 2.8987518,11.9898951 6.47454335,11.9898951 Z" transform="matrix(-1 0 0 1 46.93 0)"/>
        </g>
        <path fill="#E5AE7C" d="M68.7850112,47.0843805 L79.2933074,47.0843805 C84.3259029,47.0843805 88.4056276,51.1641052 88.4056276,56.1967007 L88.4056276,60.9993811 C88.4056276,63.3795295 86.4761361,65.309021 84.0959877,65.309021 L63.9823309,65.309021 C61.6021825,65.309021 59.672691,63.3795295 59.672691,60.9993811 L59.672691,56.1967007 C59.672691,51.1641052 63.7524157,47.0843805 68.7850112,47.0843805 Z"/>
        <rect width="24.63" height="64.134" x="103.837" y="53.569" fill="#D5D5D5" rx="12.315" transform="rotate(45 116.153 85.636)"/>
        <path fill="#5F3F2A" d="M72.4376295,47.0843805 L75.9549556,47.0843805 C78.0706431,47.0843805 79.7857466,48.799484 79.7857466,50.9151715 L79.7857466,54.2805583 C79.7857466,55.0739411 79.1425828,55.7171049 78.3492,55.7171049 L70.0433851,55.7171049 C69.2500023,55.7171049 68.6068385,55.0739411 68.6068385,54.2805583 L68.6068385,50.9151715 C68.6068385,48.799484 70.321942,47.0843805 72.4376295,47.0843805 Z"/>
        <rect width="3.352" height="5.276" x="72.603" y="51.88" fill="#5F3F2A" rx="1.676"/>
        <path fill="#E2E2E2" d="M54.4035831,90.2480028 L91.7592064,90.2480028 C102.866566,90.2480028 111.870859,99.2522965 111.870859,110.359656 L111.870859,162.670704 C111.870859,163.993008 110.79892,165.064948 109.476615,165.064948 L36.6861746,165.064948 C35.3638699,165.064948 34.2919302,163.993008 34.2919302,162.670704 L34.2919302,110.359656 C34.2919302,99.2522965 43.2962239,90.2480028 54.4035831,90.2480028 Z"/>
        <ellipse cx="65.18" cy="115.427" fill="#999898" rx="4.07" ry="4.077"/>
        <ellipse cx="82.42" cy="115.427" fill="#999898" rx="4.07" ry="4.077"/>
        <ellipse cx="65.18" cy="134.611" fill="#999898" rx="4.07" ry="4.077"/>
        <ellipse cx="82.42" cy="134.611" fill="#999898" rx="4.07" ry="4.077"/>
        <rect width="2.394" height="74.817" x="52.489" y="90.248" fill="#C7C7C7" opacity=".5"/>
        <path fill="#FC4848" d="M45.8043572,80.2657482 L74.058612,90.7136325 C74.6225199,90.9221549 74.9969238,91.459784 74.9969238,92.0610108 L74.9969238,92.2595918 C74.9969238,92.9217754 74.460118,93.4585813 73.7979343,93.4585813 L45.3061224,93.4585813 C44.5127396,93.4585813 43.8695758,92.8154175 43.8695758,92.0220347 L43.8695758,81.6131266 C43.8695758,80.8197438 44.5127396,80.1765799 45.3061224,80.1765799 C45.4761692,80.1765799 45.6448654,80.2067712 45.8043572,80.2657482 Z"/>
        <path fill="#FC4848" d="M74.5372939,80.2657482 L102.791549,90.7136325 C103.355457,90.9221549 103.729861,91.459784 103.729861,92.0610108 L103.729861,92.2595918 C103.729861,92.9217754 103.193055,93.4585813 102.530871,93.4585813 L74.0390591,93.4585813 C73.2456763,93.4585813 72.6025125,92.8154175 72.6025125,92.0220347 L72.6025125,81.6131266 C72.6025125,80.8197438 73.2456763,80.1765799 74.0390591,80.1765799 C74.2091059,80.1765799 74.3778021,80.2067712 74.5372939,80.2657482 Z" transform="matrix(-1 0 0 1 176.332 0)"/>
        <path fill="#E24040" d="M79.4747838,101.077281 C80.0752303,101.077281 82.5159968,97.4332683 82.5159968,95.1727264 C82.5159968,92.9121844 79.508443,88.3296196 79.4747838,88.3296196 C79.4411245,88.3296196 76.4335707,92.9121844 76.4335707,95.1727264 C76.4335707,97.4332683 78.8743372,101.077281 79.4747838,101.077281 Z" transform="rotate(-45 79.475 94.703)"/>
        <path fill="#FF766F" d="M52.784786,50.5907887 C50.7772765,50.4429578 52.6738305,50.404955 58.4744482,50.4767803 L58.4744483,50.4767718 C62.5892362,50.5277226 65.8981606,53.8778729 65.8981606,57.9929762 L65.8981606,60.6266638 C65.8981606,63.2602336 63.7632305,65.3951637 61.1296607,65.3951637 L61.1296607,65.3951637 C58.496091,65.3951637 56.3611609,63.2602336 56.3611609,60.6266638 L56.3611609,55.1870752 C56.6790609,52.3218678 55.4869359,50.7897723 52.784786,50.5907887 Z" transform="rotate(180 58.954 57.918)"/>
        <path fill="#E24040" d="M68.9393736,101.077281 C69.5398202,101.077281 71.9805867,97.4332683 71.9805867,95.1727264 C71.9805867,92.9121844 68.9730329,88.3296196 68.9393736,88.3296196 C68.9057144,88.3296196 65.8981606,92.9121844 65.8981606,95.1727264 C65.8981606,97.4332683 68.3389271,101.077281 68.9393736,101.077281 Z" transform="scale(-1 1) rotate(-45 0 261.138)"/>
        <ellipse cx="74.039" cy="92.166" fill="#FC4848" rx="4.31" ry="4.316"/>
        <path fill="#E2E2E2" d="M54.8838682,153.554649 L111.870859,153.554649 L111.870859,166.027874 C111.870859,167.350179 110.79892,168.422119 109.476615,168.422119 L56.7992637,168.422119 C55.74142,168.422119 54.8838682,167.564567 54.8838682,166.506723 L54.8838682,153.554649 Z"/>
        <g transform="translate(105.645 33.095)">
          <rect width="24.63" height="32.029" x="17.667" y="15.584" fill="#A56841" rx="12.315" transform="rotate(45 29.982 31.598)"/>
          <path fill="#4BC4C6" d="M27.7751721,55.1293878 C27.7751721,50.6087988 31.4360914,46.9441373 35.9542825,46.9441373 L44.1333929,46.9441373 L44.1333929,67.9981793 L27.7751721,67.9981793 L27.7751721,55.1293878 Z" transform="matrix(0 -1 -1 0 93.425 93.425)"/>
          <path fill="#63DADC" d="M23.9441139,80.6461956 L23.9441139,78.7160143 C23.9441139,72.104491 18.5844153,66.7447924 11.972892,66.7447924 L11.0142924,66.7447924 L11.0142924,74.8641366 C8.6238792,72.0305593 7.18323417,68.3696244 7.18323417,64.3722089 L7.18323417,53.2907144 C7.18323417,44.2990427 14.4724243,37.0098525 23.464096,37.0098525 L23.4663672,37.0098525 C32.4580389,37.0098525 39.7472291,44.2990427 39.7472291,53.2907144 L39.7472291,64.3722089 C39.7472291,73.2040835 32.714819,80.3934508 23.9441139,80.6461956 Z"/>
          <path fill="#4BC4C6" d="M11.2802212,58.8526594 C13.633799,56.4966867 13.5649891,52.6080205 11.1265299,50.1670801 C8.68807078,47.7261398 0.515035684,47.2976149 0.125979033,47.6870675 C-0.263077618,48.07652 0.16501163,56.2578713 2.60347078,58.6988117 C5.04192993,61.139752 8.92664343,61.208632 11.2802212,58.8526594 Z" transform="rotate(180 6.5 54.068)"/>
          <g fill="#4BC4C6" transform="rotate(90 20.796 21.374)">
            <path d="M12.1088313,23.612808 C13.175873,23.612808 17.5133107,17.137105 17.5133107,13.1199408 C17.5133107,9.10277667 12.1686465,0.959191608 12.1088313,0.959191608 C12.0490161,0.959191608 6.70435189,9.10277667 6.70435189,13.1199408 C6.70435189,17.137105 11.0417896,23.612808 12.1088313,23.612808 Z" transform="rotate(135 12.109 12.286)"/>
            <path d="M12.1088313,36.5618947 C13.175873,36.5618947 17.5133107,30.0861917 17.5133107,26.0690275 C17.5133107,22.0518634 12.1686465,13.9082783 12.1088313,13.9082783 C12.0490161,13.9082783 6.70435189,22.0518634 6.70435189,26.0690275 C6.70435189,30.0861917 11.0417896,36.5618947 12.1088313,36.5618947 Z" transform="scale(-1 1) rotate(-45 0 54.468)"/>
          </g>
          <path fill="#74F8FA" d="M19.6973538,40.3670232 L27.7119917,40.3670232 C27.3727196,42.2753427 25.7076431,43.7241938 23.7046728,43.7241938 C21.7017024,43.7241938 20.0366259,42.2753427 19.6973538,40.3670232 Z" transform="matrix(1 0 0 -1 0 84.091)"/>
          <path fill="#A56841" d="M15.323874,14.9484398 L34.0006837,14.9484398 C34.5296055,14.9484398 34.9583814,15.3772157 34.9583814,15.9061375 L34.9583814,34.6253124 C34.9583814,39.3856092 31.0993984,43.2445922 26.3391016,43.2445922 L19.154665,43.2445922 C14.3943682,43.2445922 10.5353852,39.3856092 10.5353852,34.6253124 L10.5353852,19.7369286 C10.5353852,17.0923192 12.6792647,14.9484398 15.323874,14.9484398 Z" transform="rotate(90 22.747 29.097)"/>
          <ellipse cx="25.62" cy="60.75" fill="#FFF" rx="5.986" ry="5.995"/>
          <path fill="#74F8FA" d="M25.4439412,45.1629812 L33.458579,45.1629812 C33.119307,47.0713008 31.4542304,48.5201518 29.4512601,48.5201518 C27.4482897,48.5201518 25.7832132,47.0713008 25.4439412,45.1629812 Z" transform="matrix(1 0 0 -1 0 93.683)"/>
          <path fill="#74F8FA" d="M13.9507665,45.1629812 L21.9654043,45.1629812 C21.6261323,47.0713008 19.9610558,48.5201518 17.9580854,48.5201518 C15.9551151,48.5201518 14.2900386,47.0713008 13.9507665,45.1629812 Z" transform="matrix(1 0 0 -1 0 93.683)"/>
          <ellipse cx="25.62" cy="60.75" fill="#767676" rx="2.634" ry="2.638"/>
          <path stroke="#4BC4C6" stroke-linecap="round" stroke-linejoin="round" stroke-width="5.309" d="M10.250823,67.0298035 L15.0514187,67.0298035 C19.3870671,67.0298035 22.9018045,70.5481173 22.9018045,74.8881773 L22.9018045,79.0044683 C22.9018045,81.7174783 21.7803208,82.7465511 19.1635256,82.7465511 L13.2414462,82.7465511" transform="matrix(0 -1 -1 0 91.464 91.464)"/>
        </g>
        <rect width="5.268" height="3.837" x="113.308" y="55.238" fill="#825233" rx="1.918"/>
        <rect width="5.268" height="3.837" x="113.308" y="63.391" fill="#825233" rx="1.918"/>
        <g transform="rotate(-73 142.02 17.603)">
          <path fill="#8BAB19" d="M17.5007984,17.8305762 L18.9202253,17.8305762 C19.9848794,17.8305762 20.847952,18.6936488 20.847952,19.7583029 C20.847952,19.849112 20.8415355,19.9398076 20.8287502,20.0297121 L19.3250565,30.6035492 C19.2461416,31.1584717 18.7710175,31.5708092 18.2105118,31.5708092 L18.2105118,31.5708092 C17.6500062,31.5708092 17.1748821,31.1584717 17.0959672,30.6035492 L15.5922735,20.0297121 C15.4423783,18.9756629 16.17534,17.9996731 17.2293892,17.849778 C17.3192937,17.8369927 17.4099893,17.8305762 17.5007984,17.8305762 Z"/>
          <path fill="#8BAB19" d="M24.1101709,26.3659945 C23.5180266,26.3659945 19.2390571,20.6822643 19.2390571,15.5463809 C19.2390571,10.4104975 23.5140618,4.72676727 24.1101709,4.72676727 C24.70628,4.72676727 28.9812847,9.92696295 28.9812847,15.5463809 C28.9812847,21.1657989 24.7023152,26.3659945 24.1101709,26.3659945 Z" transform="scale(-1 1) rotate(-39 0 83.631)"/>
          <path fill="#8BAB19" d="M10.8597211,26.3659945 C10.2675768,26.3659945 5.98860729,20.6822643 5.98860729,15.5463809 C5.98860729,10.4104975 10.2636119,4.72676727 10.8597211,4.72676727 C11.4558302,4.72676727 15.7308348,9.92696295 15.7308348,15.5463809 C15.7308348,21.1657989 11.4518654,26.3659945 10.8597211,26.3659945 Z" transform="rotate(-39 10.86 15.546)"/>
          <path fill="#9EC21A" d="M17.1784131,21.9430822 C16.5862688,21.9430822 12.3072994,16.259352 12.3072994,11.1234686 C12.3072994,5.98758522 16.582304,0.303854972 17.1784131,0.303854972 C17.7745223,0.303854972 22.0495269,5.50405065 22.0495269,11.1234686 C22.0495269,16.7428866 17.7705574,21.9430822 17.1784131,21.9430822 Z" transform="matrix(-1 0 0 1 34.357 0)"/>
          <g transform="translate(5.882 21.516)">
            <path fill="#FF8C23" d="M14.6302373,1.81118485 L23.2583849,28.864223 C24.4804969,32.6960816 22.3648793,36.7931341 18.5330208,38.0152461 C17.8175758,38.2434262 17.0711425,38.3595757 16.3201913,38.3595757 L8.04273478,38.3595757 C4.02070826,38.3595757 0.760211553,35.099079 0.760211553,31.0770525 C0.760211553,30.3261013 0.876361078,29.579668 1.10454118,28.864223 L9.73268884,1.81118485 C10.1640225,0.458764199 11.610041,-0.287924368 12.9624617,0.14340926 C13.7556963,0.396399173 14.3772474,1.01795019 14.6302373,1.81118485 Z" transform="matrix(1 0 0 -1 0 38.36)"/>
            <path fill="#EA7E1C" d="M1.88683288 11.9481813L1.10454118 9.49535266C.957809169 9.03528327.857403796 8.56239968.804420345 8.08374072L12.0634447 8.08374072C13.1280988 8.08374072 13.9911714 8.94681337 13.9911714 10.0114675L13.9911714 10.0204545C13.9911714 11.0851086 13.1280988 11.9481813 12.0634447 11.9481813L1.88683288 11.9481813zM20.9251134 16.8111853L19.6926099 20.6756258 13.5917582 20.6756258C12.5271042 20.6756258 11.6640315 19.8125531 11.6640315 18.7478991L11.6640315 18.738912C11.6640315 17.6742579 12.5271042 16.8111853 13.5917582 16.8111853L20.9251134 16.8111853zM7.40921281 29.2632715L6.17670933 25.3988309 10.5911725 25.3988309C11.6558266 25.3988309 12.5188992 26.2619036 12.5188992 27.3265577L12.5188992 27.3355447C12.5188992 28.4001988 11.6558266 29.2632715 10.5911725 29.2632715L7.40921281 29.2632715z"/>
          </g>
        </g>
        <g transform="rotate(62 3.57 196.908)">
          <rect width="12.703" height="14.912" x="18.778" y="37.004" fill="#DBB994" rx="1.789"/>
          <path fill="#8EE000" d="M46.2076233,13.8074091 C48.6936564,17.8655641 49.6066801,20.5966009 48.9466945,22.0005196 C48.286709,23.4044382 45.5944545,22.5116376 40.8699311,19.3221178 L43.5095511,13.8621295 L46.2076233,13.8074091 Z" transform="rotate(-6 45.012 18.226)"/>
          <path fill="#8EE000" d="M19.6973978,1.6568891 C22.1834308,5.71504406 23.0964546,8.44608087 22.436469,9.84999952 C21.7764834,11.2539182 19.0842289,10.3611176 14.3597055,7.17159779 L16.9993255,1.71160949 L19.6973978,1.6568891 Z" transform="scale(-1 1) rotate(-58 0 39.454)"/>
          <path fill="#88D01B" d="M7.29140893,23.7487437 C8.78616479,28.581191 9.19654505,31.7155419 8.52254971,33.1517965 C7.84855436,34.5880512 5.37590204,35.5038736 1.10459273,35.8992638 L4.17393095,25.7045101 L7.29140893,23.7487437 Z" transform="scale(-1 1) rotate(11 0 -21.798)"/>
          <g transform="translate(1.105 2.761)">
            <ellipse cx="23.749" cy="22.368" fill="#C0EA76" rx="23.749" ry="22.368"/>
            <path fill="#88D01B" d="M3.02944203,33.3079648 C1.10023337,30.0736686 -1.49213975e-12,26.3418522 -1.49213975e-12,22.3680028 C-1.49213975e-12,10.014496 10.6326747,2.50821586e-12 23.7487437,2.50821586e-12 C23.8549018,2.50821586e-12 23.9608972,0.000656036325 24.0667256,0.00196403935 C28.5130513,3.60937009 31.32813,8.95105083 31.32813,14.9120019 C31.32813,25.7760788 21.977409,34.5831533 10.44271,34.5831533 C7.83204754,34.5831533 5.33326114,34.1320037 3.02944203,33.3079648 Z"/>
            <path fill="#C0EA76" d="M5.73964301,36.9499588 C4.51810933,35.6128772 3.4615605,34.1382531 2.59975369,32.5541135 C2.7830737,32.566329 3.03936118,32.6610017 3.36861613,32.8381318 C6.02140133,34.265257 5.1792473,32.2432381 7.95835561,33.0364297 C10.7374639,33.8296213 11.0743255,34.5831533 13.8106682,34.265257 C16.5470109,33.9473606 15.5377419,32.719153 18.485281,30.9741315 C21.4328201,29.22911 22.0673228,30.0250439 23.6645283,29.3480888 C25.3488364,28.6342164 27.0331444,27.6030673 26.7380616,24.1921885 C26.4429787,20.7813098 29.4336124,16.5777042 31.117756,16.9346404 C32.2405184,17.1725979 33.2510484,19.2877755 34.149346,23.2801731 C27.8331908,29.6521456 24.7172209,32.8381318 24.8014363,32.8381318 C24.8856517,32.8381318 23.9169552,33.6839962 21.8953469,35.3757252 L11.9592452,36.1695365 L5.73964301,36.9499588 Z"/>
            <use fill="#91DC1E" xlink:href="#exp_bear_in_kitchen-c"/>
          </g>
          <rect width="12.703" height="2.761" x="18.778" y="46.393" fill="#D6FF8F"/>
          <path fill="#D6FF8F" d="M18.9715879,49.1543765 C18.9715879,47.9110121 17.6391261,46.7161154 14.9742026,45.5696864 C10.9768172,43.850043 18.526033,41.9174552 18.6134514,41.9758138 C18.6717304,42.0147195 20.7516921,42.8177257 24.8533364,44.3848324 L18.9715879,49.1543765 Z"/>
        </g>
        <g transform="translate(.039 150.18)">
          <g transform="translate(5.806 7.38)">
            <use fill="#A8A8A8" xlink:href="#exp_bear_in_kitchen-d"/>
            <use fill="#9A9A9A" xlink:href="#exp_bear_in_kitchen-e"/>
          </g>
          <path fill="#DBAC64" d="M2.91003404,-6.75015599e-14 L199.295776,-6.75015599e-14 C200.863373,-6.77895228e-14 202.134162,1.27078846 202.134162,2.83838548 L202.134162,7.94747933 C202.134162,9.51507634 200.863373,10.7858648 199.295776,10.7858648 L2.91003404,10.7858648 C1.34243703,10.7858648 0.0716485654,9.51507634 0.0716485654,7.94747933 L0.0716485654,2.83838548 C0.0716485654,1.27078846 1.34243703,-6.7213597e-14 2.91003404,-6.75015599e-14 Z"/>
          <path fill="#CD9E56" d="M199.295776-6.75015599e-14C200.863373-6.77895228e-14 202.134162 1.27078846 202.134162 2.83838548L202.134162 7.94747933C202.134162 9.51507634 200.863373 10.7858648 199.295776 10.7858648L193.065327 10.7858648 193.065327-6.03961325e-14 199.295776-6.03961325e-14zM2.91003404-6.03961325e-14L9.1379478-6.03961325e-14 9.1379478 10.7858648 2.91003404 10.7858648C1.34243703 10.7858648.0716485654 9.51507634.0716485654 7.94747933L.0716485654 2.83838548C.0716485654 1.27078846 1.34243703-6.7213597e-14 2.91003404-6.75015599e-14z"/>
          <polygon fill="#CD9E56" points="136.865 0 151.057 0 151.057 10.786 136.865 10.786"/>
          <polygon fill="#CD9E56" points="108.481 0 122.673 0 122.673 10.786 108.481 10.786"/>
          <polygon fill="#CD9E56" points="165.249 0 179.441 0 179.441 10.786 165.249 10.786"/>
          <polygon fill="#CD9E56" points="80.098 0 94.29 0 94.29 10.786 80.098 10.786"/>
          <polygon fill="#CD9E56" points="51.714 0 65.906 0 65.906 10.786 51.714 10.786"/>
          <polygon fill="#CD9E56" points="23.33 0 37.522 0 37.522 10.786 23.33 10.786"/>
          <polygon fill="#CD9E56" points="109.049 0 123.241 0 123.241 10.786 109.049 10.786"/>
          <polygon fill="#CD9E56" points="137.433 0 151.625 0 151.625 10.786 137.433 10.786"/>
        </g>
      </g>
    </g>
  </g>
</svg>
