<svg xmlns="http://www.w3.org/2000/svg" xmlns:xlink="http://www.w3.org/1999/xlink" width="288" height="164" viewBox="0 0 288 164">
  <defs>
    <rect id="exp_close_to_cafe-a" width="288" height="164"/>
    <path id="exp_close_to_cafe-c" d="M2.12323376,0.422517423 L14.0709399,0.422517423 C14.9699399,0.422517423 15.6987233,1.15130087 15.6987233,2.05030081 L15.6987233,3.28064124 L3.42546047,3.28064124 C2.70626052,3.28064124 2.12323376,2.69761448 2.12323376,1.97841453 L2.12323376,0.422517423 Z"/>
    <path id="exp_close_to_cafe-d" d="M10.29087,-2.22044605e-16 L10.29087,1.31664775 C10.29087,2.2979654 9.4953549,3.09348054 8.51403725,3.09348054 L0,3.09348054 L0,0 L10.29087,-2.21836308e-16 Z"/>
  </defs>
  <g fill="none" fill-rule="evenodd">
    <mask id="exp_close_to_cafe-b" fill="#fff">
      <use xlink:href="#exp_close_to_cafe-a"/>
    </mask>
    <use fill="#FFF" xlink:href="#exp_close_to_cafe-a"/>
    <g mask="url(#exp_close_to_cafe-b)">
      <g transform="matrix(-1 0 0 1 369.313 0)">
        <g transform="translate(12.949 10.67)">
          <polygon fill="#C37647" points="60.62 .337 188.06 .337 188.06 138.757 60.62 138.757"/>
          <path fill="#DEDDDD" stroke="#FFF" stroke-width="5.455" d="M76.3328682,65.5688651 L110.068817,65.5688651 C112.32844,65.5688651 114.160227,67.4006518 114.160227,69.6602753 L114.160227,112.681939 C114.160227,114.941563 112.32844,116.773349 110.068817,116.773349 L76.3328682,116.773349 C74.0732447,116.773349 72.241458,114.941563 72.241458,112.681939 L72.241458,69.6602753 C72.241458,67.4006518 74.0732447,65.5688651 76.3328682,65.5688651 Z"/>
          <path fill="#52D2FF" d="M76.3328682,114.045742 C75.5796604,114.045742 74.9690648,113.435147 74.9690648,112.681939 L74.9690648,69.6602753 C74.9690648,68.914492 75.5676822,68.3085233 76.3106367,68.2966494 L104.234648,68.2966494 C104.987856,68.2966494 105.598451,68.907245 105.598451,69.6604528 L105.598451,112.681939 C105.598451,113.435147 104.987856,114.045742 104.234648,114.045742 L76.3328682,114.045742 Z"/>
          <rect width="46.138" height="74.609" x="129.231" y="67.683" fill="#DEDDDD" stroke="#FFF" stroke-width="5.455"/>
          <path fill="#52D2FF" d="M131.958535,70.4110236 L164.504518,70.4110236 L164.504518,139.565211 L131.958535,139.565211 L131.958535,70.4110236 Z"/>
          <path stroke="#3A97B8" stroke-linecap="round" stroke-linejoin="round" stroke-width="5.022" d="M160.691496,102.76079 C161.866745,103.763708 162.61231,105.258276 162.61231,106.927559 L162.61231,113.176378 C162.61231,114.717656 161.976705,116.109986 160.954138,117.103896"/>
          <rect width="127.44" height="20.1" x="60.62" y="67.879" fill="#000" fill-opacity=".16"/>
          <rect width="62.67" height="49.039" x="60.62" y="21.403" fill="#3A7646"/>
          <polygon fill="#41A555" points="60.62 21.403 185.96 21.403 218.658 56.943 93.318 56.943"/>
          <polygon fill="#FFF" points="85.143 21.403 109.666 21.403 145.089 56.943 120.566 56.943"/>
          <polygon fill="#FFF" points="136.914 21.403 161.437 21.403 196.859 56.943 172.336 56.943"/>
          <rect width="125.17" height="13.669" x="93.318" y="56.943" fill="#3A7646"/>
          <rect width="25.247" height="13.669" x="120.566" y="56.943" fill="#C7C7C7"/>
          <rect width="25.247" height="13.669" x="172.336" y="56.943" fill="#C7C7C7"/>
        </g>
        <path fill="#92532D" d="M13.6511348,0.266141732 L199.903497,0.266141732 C204.433102,0.266141732 208.105072,3.93811185 208.105072,8.46771654 L208.105072,8.46771654 C208.105072,12.9973212 204.433102,16.6692913 199.903497,16.6692913 L13.6511348,16.6692913 C9.1215301,16.6692913 5.44955998,12.9973212 5.44955998,8.46771654 L5.44955998,8.46771654 C5.44955998,3.93811185 9.1215301,0.266141732 13.6511348,0.266141732 Z"/>
      </g>
    </g>
    <rect width="388.68" height="14.551" x="-6.339" y="149.449" fill="#D8D8D8" mask="url(#exp_close_to_cafe-b)" rx="6"/>
    <g mask="url(#exp_close_to_cafe-b)">
      <g transform="matrix(-1 0 0 1 74.993 35.016)">
        <g transform="matrix(-1 0 0 1 99.455 58.751)">
          <path fill="#E59B82" d="M11.3601604,0 L11.3601604,0 C16.4504219,-9.3506588e-16 20.5768943,4.12647232 20.5768943,9.21673388 L20.5768943,45.8861219 C20.5768943,48.4913954 18.4649028,50.6033868 15.8596294,50.6033868 L6.86069135,50.6033868 C4.25541791,50.6033868 2.14342648,48.4913954 2.14342648,45.8861219 L2.14342648,9.21673388 C2.14342648,4.12647232 6.2698988,9.3506588e-16 11.3601604,0 Z" transform="rotate(16 -106.382 65.711)"/>
          <rect width="22.114" height="43.04" x="19.592" y="2.46" fill="#E2E2E2" rx="11.057" transform="rotate(19 30.649 23.98)"/>
          <rect width="18.37" height="11.35" x="10.717" y="34.307" fill="#C7C7C7" rx="2.144" transform="rotate(21 19.902 39.983)"/>
        </g>
        <g transform="translate(0 59.18)">
          <g transform="rotate(16 -106.382 65.711)">
            <path fill="#E59B82" d="M11.3601604,0 L11.3601604,0 C16.4504219,-9.3506588e-16 20.5768943,4.12647232 20.5768943,9.21673388 L20.5768943,45.8861219 C20.5768943,48.4913954 18.4649028,50.6033868 15.8596294,50.6033868 L6.86069135,50.6033868 C4.25541791,50.6033868 2.14342648,48.4913954 2.14342648,45.8861219 L2.14342648,9.21673388 C2.14342648,4.12647232 6.2698988,9.3506588e-16 11.3601604,0 Z"/>
            <rect width="9.431" height="3.431" y="19.298" fill="#BA8161" rx="1.715"/>
            <rect width="9.431" height="3.431" y="28.304" fill="#BA8161" rx="1.715"/>
          </g>
          <rect width="22.114" height="43.04" x="19.592" y="2.46" fill="#E2E2E2" rx="11.057" transform="rotate(19 30.649 23.98)"/>
          <rect width="18.37" height="11.35" x="10.717" y="34.307" fill="#C7C7C7" rx="2.144" transform="rotate(21 19.902 39.983)"/>
        </g>
        <g transform="translate(20.148)">
          <g fill="#FC4848" transform="translate(5.925 80.214)">
            <polygon points="10.897 0 22.312 0 22.312 87.105 10.897 87.105"/>
            <polygon points="24.907 0 36.322 0 36.322 87.105 24.907 87.105"/>
          </g>
          <rect width="54.355" height="11.796" x="2.616" y="32.086" fill="#71513F" rx="5.898"/>
          <ellipse cx="48.359" cy="46.477" fill="#DE8466" rx="6.381" ry="6.37"/>
          <path fill="#E2E2E2" d="M29.8131691,49.4167057 L29.8131691,49.4167057 C44.7664191,49.4167057 56.8884232,61.5387099 56.8884232,76.4919599 L56.8884232,133.648505 C56.8884232,136.253779 54.7764318,138.36577 52.1711584,138.36577 L7.45517976,138.36577 C4.84990631,138.36577 2.73791489,136.253779 2.73791489,133.648505 L2.73791489,76.4919599 C2.73791489,61.5387099 14.8599191,49.4167057 29.8131691,49.4167057 Z"/>
          <rect width="22.687" height="22.649" x="18.686" y="54.734" fill="#FF5151" rx="11.324"/>
          <path fill="#E24040" d="M35.5679249,85.7892836 C36.1881072,85.7892836 38.7090981,81.9976391 38.7090981,79.6455147 C38.7090981,77.2933904 35.6026905,72.5251699 35.5679249,72.5251699 C35.5331593,72.5251699 32.4267517,77.2933904 32.4267517,79.6455147 C32.4267517,81.9976391 34.9477425,85.7892836 35.5679249,85.7892836 Z" transform="rotate(-46 35.568 79.157)"/>
          <path fill="#E24040" d="M24.718252,85.9786654 C25.3384344,85.9786654 27.8594252,82.1870208 27.8594252,79.8348965 C27.8594252,77.4827722 24.7530176,72.7145517 24.718252,72.7145517 C24.6834864,72.7145517 21.5770788,77.4827722 21.5770788,79.8348965 C21.5770788,82.1870208 24.0980697,85.9786654 24.718252,85.9786654 Z" transform="scale(-1 1) rotate(-46 0 137.58)"/>
          <ellipse cx="30.378" cy="76.364" fill="#FF5151" rx="3.712" ry="3.749" transform="rotate(-1 30.378 76.364)"/>
          <ellipse cx="11.36" cy="46.477" fill="#DE8466" rx="6.381" ry="6.37"/>
          <rect width="11.816" height="39.163" x="24.358" y="33.029" fill="#DE8466" rx="5.908"/>
          <path fill="#E59B82" d="M29.7432279,22.6486052 L29.7432279,22.6486052 C40.2874743,22.6486052 48.835275,31.1964058 48.835275,41.7406523 L48.835275,57.0595048 C48.835275,63.0516338 43.9776947,67.909214 37.9855658,67.909214 L21.50089,67.909214 C15.5087611,67.909214 10.6511808,63.0516338 10.6511808,57.0595048 L10.6511808,41.7406523 C10.6511808,31.1964058 19.1989815,22.6486052 29.7432279,22.6486052 Z"/>
          <path fill="#C99988" d="M48.835275,51.9030536 L48.835275,57.0595048 C48.835275,63.0516338 43.9776947,67.909214 37.9855658,67.909214 L21.50089,67.909214 C15.5087611,67.909214 10.6511808,63.0516338 10.6511808,57.0595048 L10.6511808,51.9030536 L48.835275,51.9030536 Z"/>
          <g transform="translate(23.662 51.395)">
            <path fill="#972F2F" stroke="#C99988" stroke-width="1.187" d="M1.99099316,-0.17089145 L14.0709399,-0.17089145 C15.2976706,-0.17089145 16.2921322,0.823570197 16.2921322,2.05030081 L16.2921322,6.40198929 C16.2921322,10.0320911 13.3493533,12.97487 9.71925146,12.97487 L1.99099316,12.97487 C0.76426255,12.97487 -0.230199097,11.9804084 -0.230199097,10.7536778 L-0.230199097,2.05030081 C-0.230199097,0.823570197 0.76426255,-0.17089145 1.99099316,-0.17089145 Z"/>
            <path fill="#B63F3F" d="M15.6903714,6.72076567 C15.5246874,9.87493343 12.9146849,12.3814612 9.71925146,12.3814612 L5.20499258,12.3814612 C5.75605341,8.81108687 8.86956986,6.07612967 12.6279428,6.07612967 C13.718691,6.07612967 14.7551252,6.30648585 15.6903714,6.72076567 Z"/>
            <use fill="#FFF" xlink:href="#exp_close_to_cafe-c"/>
          </g>
          <rect width="3.989" height="7.291" x="18.194" y="37.276" fill="#BA725A" rx="1.995"/>
          <rect width="3.989" height="7.291" x="30.949" y="37.276" fill="#BA725A" rx="1.995"/>
          <rect width="35.449" height="11.796" x="12.069" y="22.177" fill="#F33F3F" rx="1.062"/>
          <path stroke="#71513F" stroke-linecap="round" stroke-linejoin="round" stroke-width="5.189" d="M34.3559621 50.4875157L29.1567789 50.4875157M24.9029017 50.4875157L19.2310655 50.4875157"/>
          <g fill="#FC4848" transform="rotate(-10 54.979 4.37)">
            <rect width="43.957" height="17.458" x="5.199" rx="8.729"/>
            <path d="M7.54953506,8.02138101 L46.8055622,8.02138101 C50.9750553,8.02138101 54.3550973,11.401423 54.3550973,15.5709161 L54.3550973,15.5709161 C54.3550973,19.7404092 50.9750553,23.1204511 46.8055622,23.1204511 L7.54953506,23.1204511 C3.38004198,23.1204511 5.10615636e-16,19.7404092 0,15.5709161 L0,15.5709161 C-5.10615636e-16,11.401423 3.38004198,8.02138101 7.54953506,8.02138101 Z" transform="matrix(-1 0 0 1 54.355 0)"/>
          </g>
          <ellipse cx="22.94" cy="90.594" fill="#AFA69F" rx="2.836" ry="2.831"/>
          <ellipse cx="22.94" cy="106.165" fill="#AFA69F" rx="2.836" ry="2.831"/>
          <ellipse cx="37.12" cy="106.165" fill="#BBB" rx="2.836" ry="2.831"/>
          <path fill="#DE8466" d="M25.3709221,36.8039834 L27.7434525,36.8039834 C29.0460892,36.8039834 30.1020849,37.8599792 30.1020849,39.1626159 L30.1020849,47.1851914 C30.1020849,48.4878282 29.0460892,49.5438239 27.7434525,49.5438239 L25.3709221,49.5438239 C24.0682853,49.5438239 23.0122896,48.4878282 23.0122896,47.1851914 L23.0122896,39.1626159 C23.0122896,37.8599792 24.0682853,36.8039834 25.3709221,36.8039834 Z"/>
          <ellipse cx="16.796" cy="57.093" fill="#B18474" rx="1.418" ry="1.416"/>
          <ellipse cx="20.104" cy="60.396" fill="#B18474" rx="1" ry="1"/>
          <ellipse cx="43.501" cy="55.914" fill="#B18474" rx="1.182" ry="1.18"/>
        </g>
        <path stroke="#BBB" stroke-linecap="round" stroke-linejoin="round" stroke-width="2.144" d="M58.9442283,88.9847691 L55.7219518,92.2082255"/>
        <path stroke="#BBB" stroke-linecap="round" stroke-linejoin="round" stroke-width="2.144" d="M58.9442283,88.9847691 L55.7219518,92.2082255" transform="matrix(-1 0 0 1 114.459 0)"/>
        <path stroke="#71513F" stroke-linecap="round" stroke-linejoin="round" stroke-width="6.604" d="M35.3617238,33.2898442 C36.1409542,32.7388043 37.0895369,32.4632843 38.2074718,32.4632843 C39.3254067,32.4632843 40.2739893,32.7388043 41.0532198,33.2898442" transform="rotate(-6 38.207 32.877)"/>
        <path stroke="#71513F" stroke-linecap="round" stroke-linejoin="round" stroke-width="6.604" d="M52.3054436,33.2898442 C53.084674,32.7388043 54.0332567,32.4632843 55.1511916,32.4632843 C56.2691265,32.4632843 57.2177091,32.7388043 57.9969396,33.2898442" transform="scale(-1 1) rotate(-6 0 1085.224)"/>
      </g>
    </g>
    <g mask="url(#exp_close_to_cafe-b)">
      <g transform="translate(64.708 50.765)">
        <path fill="#EEE6E6" stroke="#EEE6E6" stroke-width="1.943" d="M3.57861609,59.5377668 C2.02691176,57.9800639 2.02691176,55.4303522 3.57861609,53.8726493 C5.13069067,52.3145748 7.67021347,52.3145748 9.22228805,53.8726493 L26.1010991,70.81671 C27.6531737,72.3744129 27.6531737,74.9241246 26.1010991,76.4818274 C24.5490245,78.039902 22.0095018,78.039902 20.4574272,76.4818274 L3.57861609,59.5377668 Z" transform="matrix(-1 0 0 1 29.68 0)"/>
        <path fill="#B4725C" d="M23.1536902,76.4205422 L17.7259701,81.876488 C16.6597733,82.9487353 14.9307258,82.9487353 13.8641084,81.876488 C12.7974909,80.8046636 12.7974909,79.0664899 13.8641084,77.9946654 L19.2918284,72.537874 C20.3584459,71.4660495 22.0870727,71.4660495 23.1536902,72.537874 C24.2203076,73.6105441 24.2203076,75.3482949 23.1536902,76.4205422"/>
        <g transform="rotate(4 -702.12 585.013)">
          <g transform="scale(-1 1) rotate(8 -53 -185.559)">
            <rect width="4.424" height="11.734" x="2.904" y="33.196" fill="#B4725C" rx="2.212" transform="rotate(19 5.116 39.063)"/>
            <path fill="#C68873" d="M6.47943546,38.537126 L4.17819414,41.9488566 C3.56090846,42.8640202 2.31861282,43.105498 1.40344917,42.4882124 L1.04959043,42.2495316 C0.134426776,41.632246 -0.107051035,40.3899503 0.510234644,39.4747867 L4.7519611,33.1861686 L7.26353109,29.0745667 C7.29354089,29.0254387 7.32496686,28.9775424 7.35773348,28.9309111 L15.0926197,0.0639226122 L22.0841892,1.93730801 L14.5480313,30.0626323 C14.642024,30.3315897 14.6939571,30.6192446 14.6966989,30.9170494 L14.745902,36.2613435 L14.8557316,39.406454 C14.8942567,40.5096683 14.0311555,41.435231 12.9279412,41.4737561 L12.5013704,41.4886523 C11.3981561,41.5271774 10.4725934,40.6640762 10.4340683,39.5608618 L10.4230782,39.2461477 C10.3061216,38.2631374 9.82653003,37.6380426 8.9843035,37.3708631 C8.14537035,37.1047284 7.31041434,37.4934827 6.47943546,38.537126 Z"/>
          </g>
          <path fill="#EEE6E6" d="M6.09645807,1.49300022 L9.86132344,1.49300022 C12.5448002,1.49300022 14.7201879,3.66838793 14.7201879,6.35186468 L14.7201879,26.3840381 C14.7201879,26.9882371 14.2303878,27.4780372 13.6261888,27.4780372 L6.09645807,27.4780372 C5.49225906,27.4780372 5.00245898,26.9882371 5.00245898,26.3840381 L5.00245898,2.58699931 C5.00245898,1.9828003 5.49225906,1.49300022 6.09645807,1.49300022 Z" transform="rotate(-23 9.861 14.486)"/>
          <rect width="14.038" height="5.376" x="8.002" y="23.741" fill="#E2E2E2" rx="2.688" transform="rotate(-23 15.02 26.429)"/>
        </g>
        <g transform="matrix(-1 0 0 1 60.51 98.124)">
          <path fill="#C68873" d="M13.8767266 2.91457404L24.5157685 2.91457404 24.5157685 53.667405C24.5157685 54.5205799 18.6772825 54.6058122 18.6185941 53.8122998L13.8767266 2.91457404zM39.076501 0L28.4374591 0 28.4374591 50.7528309C28.4374591 51.6060059 28.9320907 52.2976657 29.5422278 52.2976657L33.5788242 52.2976657C34.1487325 52.2976657 34.6253831 51.6912382 34.6787167 50.8977258L39.076501 0z"/>
        </g>
        <path fill="#45BBCD" d="M33.9911981,72.8643511 L33.9911981,72.8643511 C44.1057607,72.8643511 52.3052338,81.0638242 52.3052338,91.1783868 C52.3052338,91.9727978 52.2535449,92.7663671 52.1504947,93.5540659 L47.9329247,125.792471 C47.8063598,126.759912 46.9819772,127.48347 46.0062926,127.48347 L21.9761036,127.48347 C21.000419,127.48347 20.1760364,126.759912 20.0494715,125.792471 L15.8319015,93.5540659 C14.5198502,83.5249633 21.5864164,74.3311415 31.615519,73.0190902 C32.4032178,72.91604 33.1967871,72.8643511 33.9911981,72.8643511 Z"/>
        <path fill="#E2E2E2" d="M28.1125732,73.605895 L28.1125732,114.484719 C28.1125732,115.557835 27.2426404,116.427768 26.1695239,116.427768 L17.3339004,116.427768 C16.2607839,116.427768 15.390851,115.557835 15.390851,114.484719 L15.390851,86.3276171 C15.390851,79.301604 21.0865601,73.605895 28.1125732,73.605895 Z"/>
        <path fill="#E2E2E2" d="M52.9528325,73.605895 L52.9528325,114.484719 C52.9528325,115.557835 52.0828996,116.427768 51.0097831,116.427768 L42.1741596,116.427768 C41.1010431,116.427768 40.2311103,115.557835 40.2311103,114.484719 L40.2311103,86.3276171 C40.2311103,79.301604 45.9268193,73.605895 52.9528325,73.605895 Z" transform="matrix(-1 0 0 1 93.184 0)"/>
        <g transform="translate(15.785 47.961)">
          <rect width="36.802" height="30.651" fill="#50CADC" rx="15.326"/>
          <path fill="#E2E2E2" d="M12.2673749,30.3462542 C5.26859242,28.9288911 9.08302998e-16,22.7425799 0,15.3257231 C-9.08302998e-16,7.90886625 5.26859242,1.72255511 12.2673749,0.305191985 L12.2673749,30.3462542 Z"/>
          <path fill="#EEE6E6" d="M5.20301379,3.81857527 C7.17406984,2.08330294 9.59455144,0.846480628 12.2673749,0.305191985 L12.2673749,13.5226968 L5.20301379,3.81857527 Z"/>
          <path fill="#E2E2E2" d="M24.5347499,0.305191985 C31.5335324,1.72255511 36.8021248,7.90886625 36.8021248,15.3257231 C36.8021248,22.7425799 31.5335324,28.9288911 24.5347499,30.3462542 L24.5347499,0.305191985 Z"/>
          <path fill="#EEE6E6" d="M24.5347499,0.305191985 C27.2075734,0.846480628 29.628055,2.08330294 31.5991111,3.81857527 L24.5347499,13.5226968 L24.5347499,0.305191985 Z"/>
        </g>
        <g transform="matrix(-1 0 0 1 28.477 67.035)">
          <path fill="#E2E2E2" d="M20.0155218,15.9006473 L19.9758102,15.9006473 C15.8805492,15.9006473 12.5298811,12.5368357 12.5298811,8.42643324 C12.5298811,4.31561552 15.8805492,0.951803966 19.9758102,0.951803966 L20.0155218,0.951803966 C24.1107829,0.951803966 27.461451,4.31561552 27.461451,8.42643324 C27.461451,12.5368357 24.1107829,15.9006473 20.0155218,15.9006473"/>
          <g fill="#C68873" transform="matrix(-1 0 0 1 24.032 4.583)">
            <path d="M17.9109787,15.2868335 L10.1641227,15.2868335 C8.92001612,15.2868335 7.91144016,14.2733569 7.91144016,13.0226836 L7.91144016,12.6747106 C7.91144016,11.4236145 8.92001612,10.4101379 10.1641227,10.4101379 L17.9109787,10.4101379 C19.1550853,10.4101379 20.1636612,11.4236145 20.1636612,12.6747106 L20.1636612,13.0226836 C20.1636612,14.2733569 19.1550853,15.2868335 17.9109787,15.2868335"/>
            <path d="M20.5435806,12.1756252 L11.1892279,12.1756252 C9.84964724,12.1756252 8.76368264,11.0839286 8.76368264,9.7368546 C8.76368264,8.39062618 9.84964724,7.29892964 11.1892279,7.29892964 L20.5435806,7.29892964 C21.8831613,7.29892964 22.9691259,8.39062618 22.9691259,9.7368546 C22.9691259,11.0839286 21.8831613,12.1756252 20.5435806,12.1756252"/>
            <path d="M19.974732,8.76464429 L12.9933507,8.76464429 C11.6537701,8.76464429 10.5678055,7.67294775 10.5678055,6.3258737 C10.5678055,4.97964528 11.6537701,3.88794874 12.9933507,3.88794874 L19.974732,3.88794874 C21.3147332,3.88794874 22.4006978,4.97964528 22.4006978,6.3258737 C22.4006978,7.67294775 21.3147332,8.76464429 19.974732,8.76464429"/>
            <path d="M7.47570843,13.9362078 L1.14582182,6.8558243 C-0.349377313,5.18360904 -0.211423638,2.58501611 1.45243227,1.08234783 C3.11586759,-0.420743262 5.70039605,-0.28248425 7.19559518,1.39015383 L13.5254818,8.47053735 C15.0206809,10.1427526 14.8827272,12.7413455 13.2192919,14.2444366 L13.2188713,14.2444366 C11.555436,15.7471049 8.97090756,15.6088459 7.47570843,13.9362078"/>
          </g>
        </g>
        <path fill="#454545" d="M34.331944,0 L34.331944,0 C45.2397348,-2.00372866e-15 54.0822464,8.84251155 54.0822464,19.7503023 L54.0822464,28.1705943 L58.3773049,47.3379192 C58.4857562,47.8218988 58.1813303,48.302159 57.6973507,48.4106103 C57.632893,48.4250541 57.5670384,48.4323421 57.5009823,48.4323421 L11.1549954,48.4323421 C10.6590136,48.4323421 10.2569409,48.0302694 10.2569409,47.5342876 C10.2569409,47.4703066 10.2637782,47.4065089 10.2773364,47.343981 L14.5816417,27.4933188 L14.5816417,19.7503023 C14.5816417,8.84251155 23.4241533,2.00372866e-15 34.331944,0 Z"/>
        <rect width="7.724" height="16.227" x="30.746" y="38.369" fill="#B4725C" rx="3.862"/>
        <g transform="translate(9.469 3.915)">
          <ellipse cx="6.583" cy="22.888" fill="#B4725C" rx="6.583" ry="6.51"/>
          <ellipse cx="42.833" cy="22.888" fill="#B4725C" rx="6.583" ry="6.51"/>
          <g transform="translate(8.348)">
            <path fill="#C68873" d="M16.7991077,0 L16.7991077,0 C26.0769987,-1.70432093e-15 33.5982155,7.52121672 33.5982155,16.7991077 L33.5982155,25.4608419 C33.5982155,34.7387329 26.0769987,42.2599496 16.7991077,42.2599496 L16.7991077,42.2599496 C7.52121672,42.2599496 4.68892763e-15,34.7387329 3.55271368e-15,25.4608419 L0,16.7991077 C-1.13621395e-15,7.52121672 7.52121672,1.70432093e-15 16.7991077,0 Z"/>
            <path fill="#454545" d="M27.9757954,4.25728051 C23.4193122,11.6802353 15.081269,16.6511376 5.5501246,16.6511376 C3.65093712,16.6511376 1.79912178,16.4537677 0.0151576031,16.0789563 C0.392367551,7.13512347 7.76248895,1.65999994e-15 16.7991077,0 C21.0907106,-7.88354656e-16 25.0064486,1.60926891 27.9757954,4.25728051 Z"/>
          </g>
          <g transform="translate(15.337 28.52)">
            <path fill="#AA4A4A" d="M0,0 L10.3005328,-2.22044605e-16 C11.0365211,-1.66462119e-15 11.6331574,0.596636352 11.6331574,1.33262459 L11.6331574,8.8316686 C11.6331574,9.56765684 11.0365211,10.1642932 10.3005328,10.1642932 L5.33049836,10.1642932 C2.38654541,10.1642932 3.60530256e-16,7.77774779 0,4.83379483 L0,0 Z"/>
            <path fill="#BD5252" d="M7.02488538,10.1642932 L5.33049836,10.1642932 C2.47647895,10.1642932 0.146331266,7.92133171 0.00662933379,5.10198278 C0.720881058,4.66894786 1.56134842,4.41925791 2.46086023,4.41925791 C5.05549723,4.41925791 7.15886611,6.49675553 7.15886611,9.05947872 C7.15886611,9.44019957 7.11244395,9.81021131 7.02488538,10.1642932 Z"/>
            <use fill="#FFF" xlink:href="#exp_close_to_cafe-d"/>
          </g>
          <rect width="2.27" height="6.285" x="20.883" y="16.768" fill="#935A47" rx="1.135"/>
          <rect width="2.27" height="6.285" x="34.082" y="16.768" fill="#935A47" rx="1.135"/>
          <path stroke="#C68873" stroke-width="2.694" d="M17.1396302,21.8525883 C20.6964936,21.7029395 22.7774642,22.6382443 23.3825418,24.6585026"/>
          <path stroke="#C68873" stroke-width="2.694" d="M34.4762676,21.8525883 C38.0331311,21.7029395 40.1141016,22.6382443 40.7191793,24.6585026" transform="matrix(-1 0 0 1 75.195 0)"/>
          <ellipse cx="41.026" cy="20.122" fill="#FFFBFB" fill-opacity=".138" stroke="#ECCABF" stroke-width="1.796" rx="9.308" ry="9.203"/>
          <path fill="#B4725C" d="M29.2301343,14.0381404 L29.2301343,14.0381404 C30.3585265,14.0381404 31.2732691,14.952883 31.2732691,16.0812752 L31.2732691,25.3320871 C31.2732691,26.4604793 30.3585265,27.3752218 29.2301343,27.3752218 L29.2301343,27.3752218 C28.1017422,27.3752218 27.1869996,26.4604793 27.1869996,25.3320871 L27.1869996,16.0812752 C27.1869996,14.952883 28.1017422,14.0381404 29.2301343,14.0381404 Z"/>
          <ellipse cx="17.976" cy="20.122" fill="#FFFBFB" fill-opacity=".138" stroke="#ECCABF" stroke-width="1.796" rx="9.308" ry="9.203"/>
          <path stroke="#ECCABF" stroke-linecap="round" stroke-width="1.547" d="M31.6657028,19.3388635 C31.3191245,18.8307772 30.4804371,18.4724102 29.5008562,18.4724102 C28.2113262,18.4724102 27.1659555,19.0934369 27.1659555,19.8595122"/>
        </g>
      </g>
    </g>
  </g>
</svg>
