<svg xmlns="http://www.w3.org/2000/svg" xmlns:xlink="http://www.w3.org/1999/xlink" width="288" height="164" viewBox="0 0 288 164">
  <defs>
    <rect id="exp_airport-a" width="288" height="164"/>
    <ellipse id="exp_airport-c" cx="82.514" cy="82.476" rx="82.514" ry="82.476"/>
    <path id="exp_airport-e" d="M29.5715859,19.3228179 C31.4124078,17.7797735 33.3219356,16.3155644 35.2951187,14.9352387 L35.2951187,47.6738337 L29.5715859,47.6738337 L29.5715859,19.3228179 Z"/>
    <path id="exp_airport-f" d="M55.3274829,4.6679985 C57.2047711,4.01088682 59.1135083,3.4189856 61.0510161,2.894972 L61.0510161,47.6738337 L55.3274834,47.6738337 L55.3274834,4.6679947 Z"/>
    <path id="exp_airport-g" d="M82.9912251,7.74899493e-28 C84.914644,8.33119478e-15 86.823233,0.0671785249 88.7147578,0.199376437 L88.7147578,47.6738337 L82.9912251,47.6738337 L82.9912251,7.10542736e-15 Z"/>
    <path id="exp_airport-h" d="M110.654967,4.84210389 C112.597266,5.54593774 114.506188,6.32179552 116.3785,7.16655288 L116.3785,47.6738337 L110.654967,47.6738337 L110.654967,4.8421004 Z"/>
  </defs>
  <g fill="none" fill-rule="evenodd">
    <mask id="exp_airport-b" fill="#fff">
      <use xlink:href="#exp_airport-a"/>
    </mask>
    <use fill="#FFF" xlink:href="#exp_airport-a"/>
    <g mask="url(#exp_airport-b)">
      <g transform="translate(20.837 11)">
        <rect width="17.171" height="127.766" x="175.886" y="23.956" fill="#D0E3E8" rx="1.907"/>
        <g transform="translate(162.646 46.472)">
          <path fill="#1CB0F6" d="M3.18956751,0.368174161 L41.4152226,0.368174161 C42.4683929,0.368174161 43.3221562,1.22193743 43.3221562,2.27510779 C43.3221562,2.40718009 43.3084355,2.53889509 43.2812151,2.66813185 L40.2688211,16.9703214 C40.0829789,17.8526594 39.3045258,18.484231 38.4028286,18.484231 L6.20196148,18.484231 C5.30026434,18.484231 4.52181115,17.8526594 4.33596899,16.9703214 L1.32357502,2.66813185 C1.10651383,1.63757265 1.76598426,0.626176495 2.79654345,0.409115304 C2.92578021,0.381894854 3.0574952,0.368174161 3.18956751,0.368174161 Z"/>
          <path fill="#16A1E4" d="M34.0003814,0.368174161 L41.4152226,0.368174161 C42.4683929,0.368174161 43.3221562,1.22193743 43.3221562,2.27510779 C43.3221562,2.40718009 43.3084355,2.53889509 43.2812151,2.66813185 L40.2688211,16.9703214 C40.0829789,17.8526594 39.3045258,18.484231 38.4028286,18.484231 L30.4789766,18.484231 L34.0003814,0.368174161 Z"/>
        </g>
        <g transform="translate(165.327 1.787)">
          <path fill="#1CB0F6" d="M1.97312851,0.179366899 L35.7842019,0.179366899 C36.8373722,0.179366899 37.6911355,1.03313017 37.6911355,2.08630053 C37.6911355,2.21872985 37.6773405,2.35079895 37.6499739,2.48036976 L35.0319793,14.875606 C34.8457258,15.7574476 34.0675036,16.3884704 33.1662073,16.3884704 L4.59112312,16.3884704 C3.6898268,16.3884704 2.91160462,15.7574476 2.72535108,14.875606 L0.107356464,2.48036976 C-0.11028196,1.44993231 0.548621834,0.438166912 1.57905928,0.220528487 C1.70863008,0.193161871 1.84069918,0.179366899 1.97312851,0.179366899 Z"/>
          <path fill="#16A1E4" d="M29.3695426,0.179366899 L35.7842019,0.179366899 C36.8373722,0.179366899 37.6911355,1.03313017 37.6911355,2.08630053 C37.6911355,2.21872985 37.6773405,2.35079895 37.6499739,2.48036976 L35.0319793,14.875606 C34.8457258,15.7574476 34.0675036,16.3884704 33.1662073,16.3884704 L26.2188121,16.3884704 L29.3695426,0.179366899 Z"/>
        </g>
        <g transform="translate(157.762 21.096)">
          <path fill="#1CB0F6" d="M1.90733723,0 L51.577366,1.33226763e-15 C52.6305363,1.13880337e-15 53.4842996,0.853763267 53.4842996,1.90693363 C53.4842996,2.03936295 53.4705046,2.17143205 53.443138,2.30100286 L49.4154585,21.3705758 C49.2292049,22.2524174 48.4509827,22.8834402 47.5496864,22.8834402 L5.93501676,22.8834402 C5.03372044,22.8834402 4.25549826,22.2524174 4.06924472,21.3705758 L0.0415651867,2.30100286 C-0.176073238,1.27056541 0.482830556,0.258800013 1.513268,0.0411615879 C1.64283881,0.0137949717 1.77490791,1.3565945e-15 1.90733723,1.33226763e-15 Z"/>
          <path fill="#16A1E4" d="M40.1039313,1.02452298e-15 L51.577366,1.33226763e-15 C52.5165485,1.15974259e-15 53.2971529,0.678953867 53.4551253,1.57280773 L51.8171635,9.99939075 L49.4154585,21.3705758 C49.2292049,22.2524174 48.4509827,22.8834402 47.5496864,22.8834402 L35.6558411,22.8834402 L40.1039313,-3.55271368e-15 Z"/>
          <path fill="#50D1FF" d="M14.4489828,3.69432876 L24.8024306,3.69432876 C25.3290158,3.69432876 25.7558974,4.1212104 25.7558974,4.64779558 L25.7558974,20.02302 C25.7558974,20.5496052 25.3290158,20.9764868 24.8024306,20.9764868 L16.5706459,20.9764868 C16.0944245,20.9764868 15.6912274,20.6251071 15.6261294,20.1533561 L13.5044663,4.77813162 C13.4324837,4.25648954 13.7970047,3.77526165 14.3186468,3.70327904 C14.3618364,3.69731921 14.4053839,3.69432876 14.4489828,3.69432876 Z"/>
        </g>
        <g transform="translate(29.936 104.049)">
          <mask id="exp_airport-d" fill="#fff">
            <use xlink:href="#exp_airport-c"/>
          </mask>
          <ellipse cx="82.514" cy="82.476" stroke="#D0E3E8" stroke-width="5.721" rx="85.375" ry="85.336"/>
          <path fill="#FFF" fill-opacity=".22" d="M109.182176,4.32442204 C115.458954,6.4628781 121.401396,9.34889064 126.903143,12.8796722 L102.550201,34.3274892 L79.1845653,34.3220324 L109.182176,4.32442204 Z" mask="url(#exp_airport-d)"/>
          <path fill="#FFF" fill-opacity=".25" d="M0.0790740242,79.2718678 C1.98678361,34.9728491 38.1770544,0 82.9912251,0 C83.9551095,0 84.9152697,0.0168706823 85.8714245,0.0503403194 L3.36448551,82.5572793 L0.0790740242,79.2718678 Z" mask="url(#exp_airport-d)"/>
          <use fill="#1CDAF6" xlink:href="#exp_airport-e"/>
          <use fill="#1CDAF6" xlink:href="#exp_airport-f"/>
          <use fill="#1CDAF6" xlink:href="#exp_airport-g"/>
          <use fill="#1CDAF6" xlink:href="#exp_airport-h"/>
        </g>
        <path stroke="#D0E3E8" stroke-linecap="square" stroke-width="6.674" d="M59.0306018 123.475623L59.0306018 159.840161M84.7864993 110.720133L84.7864993 152.212348M140.113983 107.85988L140.113983 152.212348M167.777724 125.263391L167.777724 152.212348M112.450241 104.046128L112.450241 151.258871"/>
        <g transform="rotate(6 -65.083 237.391)">
          <rect width="176.476" height="62.929" x="38.157" y="38.139" fill="#FFF" opacity=".593" transform="rotate(28 126.395 69.604)"/>
          <g transform="rotate(5 -40.151 81.864)">
            <path fill="#E53B3B" d="M129.328977,18.777719 L136.13064,18.777719 C137.18381,18.777719 138.037574,19.6314823 138.037574,20.6846526 C138.037574,20.8697293 138.01063,21.0538201 137.957592,21.2311342 L131.175154,43.9056225 L89.799032,56.916786 L127.991308,19.3255947 C128.348019,18.9744979 128.828465,18.777719 129.328977,18.777719 Z" transform="rotate(22 113.918 37.847)"/>
            <path fill="#D0E3E8" d="M11.2135413,32.3812186 C13.8513045,27.3871494 19.0988151,23.9833504 25.1416969,23.9833504 L133.400035,23.9833998 C134.400638,23.9834 135.211788,24.7941706 135.211787,25.7943067 C135.211787,26.4163792 134.892343,26.9949107 134.365767,27.3264989 C118.935179,37.0432329 102.637954,45.4841769 85.4740918,52.6493311 C81.0485207,54.4968106 76.3001529,55.4481098 71.5041077,55.4481098 L25.1416998,55.4481098 C22.0914922,55.4481098 19.2439317,54.5808796 16.832355,53.0796468 C15.8965054,52.622353 15.0040438,52.067521 14.1707188,51.4200904 L4.84448773,44.1743128 C2.00308575,41.966758 1.49061279,37.8738208 3.69984733,35.0324817 C4.86140243,33.5385833 6.61496639,32.6229677 8.50475464,32.5236207 L11.2135413,32.3812186 Z" transform="rotate(22 68.769 39.716)"/>
            <path fill="#1CB0F6" d="M23.1317189,10.6385266 L36.9023381,10.6385266 C37.2478249,10.6385266 37.5868213,10.7323856 37.8831104,10.910076 L42.1999272,13.4989567 C42.9292615,13.9363529 43.1659241,14.8821749 42.7285279,15.6115092 C42.450278,16.0754757 41.9489577,16.3593867 41.4079513,16.3593867 L19.3044598,16.3593867 C18.9366849,16.3593867 18.5851211,16.2899788 18.2621527,16.1635475 C19.4288336,13.9594443 21.1040968,12.0657205 23.1317189,10.6385266 Z" transform="rotate(22 30.605 13.499)"/>
            <path fill="#D0E3E8" d="M28.8689881,16.2360682 L28.8689881,10.5152082 L31.7307545,10.5152082 L31.7307545,16.2360682 L28.8689881,16.2360682 Z" transform="rotate(22 30.3 13.376)"/>
            <rect width="6.677" height="9.535" x="65.104" y="26.019" fill="#1CB0F6" rx="3.339" transform="rotate(22 68.443 30.786)"/>
            <rect width="6.677" height="9.535" x="73.949" y="29.59" fill="#1CB0F6" rx="3.339" transform="rotate(22 77.288 34.358)"/>
            <rect width="6.677" height="9.535" x="82.793" y="33.162" fill="#1CB0F6" rx="3.339" transform="rotate(22 86.132 37.93)"/>
            <ellipse cx="24.065" cy="43.703" fill="#7D7D7D" rx="3.816" ry="3.814" transform="rotate(-4 24.065 43.703)"/>
            <ellipse cx="67.116" cy="60.423" fill="#7D7D7D" rx="3.816" ry="3.814" transform="rotate(11 67.116 60.423)"/>
            <ellipse cx="39.308" cy="31.662" fill="#839EA5" rx="3.816" ry="3.814" transform="rotate(22 39.308 31.662)"/>
            <path fill="#E53B3B" d="M41.9277242,31.3228873 L52.9431377,31.7275502 C54.1219747,31.7708561 55.2909258,31.9598395 56.4233558,32.2901945 L65.371176,34.9004722 C66.1704767,35.1336459 66.7260876,35.8584455 66.7436503,36.6908776 L66.8235859,40.479656 C66.8416818,41.3373627 66.2847949,42.1015655 65.4627743,42.3470658 L56.649621,44.9791555 C55.312503,45.3784921 53.9241388,45.5799864 52.5286652,45.5772326 L41.8539552,45.556168 C40.8022562,45.5540926 39.9507846,44.7009392 39.9507846,43.6492381 L39.9507846,33.2285355 C39.9507846,32.1753651 40.8045479,31.3216018 41.8577182,31.3216018 C41.8810595,31.3216018 41.9043987,31.3220304 41.9277242,31.3228873 Z" transform="rotate(22 53.387 38.45)"/>
            <path fill="#839EA5" d="M43.2206057,20.0358638 L43.2206057,20.0358638 C44.4526312,20.0358638 45.4513853,21.0346179 45.4513853,22.2666434 C45.4513853,22.3162582 45.44973,22.3658592 45.4464223,22.4153636 L44.7097087,33.4413699 C44.6768614,33.9329784 44.2709229,34.3163394 43.7782406,34.3210316 L43.7782406,34.3210316 C43.2781255,34.3257946 42.8515307,33.9600479 42.7798753,33.4650698 L41.1774744,22.3960662 C41.0141233,21.2676759 41.7964421,20.2205127 42.9248324,20.0571616 C43.0227855,20.0429814 43.1216315,20.0358638 43.2206057,20.0358638 Z" transform="rotate(25 43.304 27.178)"/>
            <path fill="#839EA5" d="M37.9036093,31.8344872 L37.9525067,31.8344872 C39.2689696,31.8344872 40.3361737,32.9016912 40.3361737,34.2181542 C40.3361737,34.2796607 40.3337931,34.3411442 40.3290372,34.4024666 L39.5526761,44.4128929 C39.5106441,44.9548544 39.0608829,45.3745233 38.5173123,45.3789834 L38.5173123,45.3789834 C37.9636525,45.3835262 37.4887516,44.9850974 37.3970019,44.4390739 L35.7139401,34.4227895 C35.5107348,33.2134686 36.3263527,32.0683898 37.5356736,31.8651846 C37.6572539,31.8447551 37.7803245,31.8344872 37.9036093,31.8344872 Z" transform="scale(1 -1) rotate(-23 -151.749 0)"/>
            <path fill="#CD3333" d="M57.0071604,41.878768 L86.2212488,43.878369 C87.1335633,43.9408137 87.8486042,44.6870913 87.8720069,45.6012409 L87.8720069,45.6012409 C87.8950481,46.5012667 87.201748,47.2581531 86.3031595,47.3139758 L56.9861912,49.1352233 C55.1466892,49.2494981 53.5628402,47.850925 53.4485655,46.011423 C53.444286,45.9425351 53.4421447,45.873531 53.4421447,45.8045103 L53.4421447,45.2081121 C53.4421447,43.365064 54.9362304,41.8709782 56.7792785,41.8709782 C56.8553057,41.8709782 56.9313107,41.8735763 57.0071604,41.878768 Z" transform="rotate(22 70.657 45.506)"/>
            <path fill="#CD3333" d="M118.996974,47.1010814 L143.782645,48.810338 C144.571358,48.8647288 145.189289,49.5101089 145.209371,50.3004398 L145.209371,50.3004398 C145.229144,51.0786377 144.629842,51.7330853 143.852913,51.7817133 L118.998363,53.3373616 C117.270429,53.4455132 115.781986,52.1324195 115.673835,50.4044847 C115.669754,50.3392892 115.667713,50.273982 115.667713,50.2086589 L115.667713,50.2086589 C115.667713,48.4883151 117.062327,47.0937008 118.782671,47.0937008 C118.854169,47.0937008 118.925645,47.0961625 118.996974,47.1010814 Z" transform="rotate(19 130.439 50.219)"/>
          </g>
        </g>
        <polygon fill="#1BC5DE" points="88.125 140.281 109.112 140.281 109.112 159.048 88.125 159.048"/>
        <polygon fill="#1BC5DE" points="115.789 140.281 137.729 140.281 137.729 159.048 115.789 159.048"/>
        <rect width="62.005" height="5.721" x="81.448" y="136.467" fill="#DFF8FF" rx=".953"/>
        <rect width="57.235" height="4.767" x="155.854" y="18.176" fill="#D0E3E8" rx="2.384"/>
        <rect width="41.973" height="4.767" x="163.485" fill="#D0E3E8" rx="2.384"/>
        <rect width="48.65" height="4.767" x="160.623" y="43.92" fill="#D0E3E8" rx="2.384"/>
      </g>
    </g>
  </g>
</svg>
