<svg xmlns="http://www.w3.org/2000/svg" xmlns:xlink="http://www.w3.org/1999/xlink" width="288" height="164" viewBox="0 0 288 164">
  <defs>
    <rect id="exp_red_bike-a" width="288" height="164"/>
  </defs>
  <g fill="none" fill-rule="evenodd">
    <mask id="exp_red_bike-b" fill="#fff">
      <use xlink:href="#exp_red_bike-a"/>
    </mask>
    <use fill="#FFF" xlink:href="#exp_red_bike-a"/>
    <g mask="url(#exp_red_bike-b)">
      <g transform="translate(-1.5 3.77)">
        <g transform="translate(0 23.126)">
          <path fill="#8BC43C" fill-rule="nonzero" d="M3.1713903,120.849272 L287.82861,120.849272 C289.58012,120.849272 291,122.269152 291,124.020663 L291,138.193643 C291,139.25798 290.137184,140.120796 289.072848,140.120796 L1.92715232,140.120796 C0.862815482,140.120796 1.3034367e-16,139.25798 0,138.193643 L4.27913775e-16,124.020663 C2.13415603e-16,122.269152 1.4198798,120.849272 3.1713903,120.849272 Z"/>
          <rect width="49.142" height="9.636" x="52.033" y="11.563" fill="#E8EEF4" fill-rule="nonzero" rx="4.818"/>
          <rect width="29.871" height="9.636" x="36.616" y="32.762" fill="#E8EEF4" fill-rule="nonzero" rx="4.818"/>
          <rect width="77.086" height="9.636" x="195.606" y="44.325" fill="#E8EEF4" fill-rule="nonzero" rx="4.818"/>
          <rect width="39.507" height="25.053" x="204.278" y="26.017" fill="#E8EEF4" fill-rule="nonzero" rx="9.154"/>
          <rect width="20.235" height="19.272" x="239.93" y="32.762" fill="#E8EEF4" fill-rule="nonzero" rx="7.709"/>
          <path fill="#E8EEF4" fill-rule="nonzero" d="M70.8228477,0 L89.1307947,0 C93.1220578,-7.33183143e-16 96.3576159,3.23555806 96.3576159,7.22682119 L96.3576159,10.5993377 C96.3576159,12.7280114 94.6319849,14.4536424 92.5033113,14.4536424 L67.4503311,14.4536424 C65.3216575,14.4536424 63.5960265,12.7280114 63.5960265,10.5993377 L63.5960265,7.22682119 C63.5960265,3.23555806 66.8315846,7.33183143e-16 70.8228477,0 Z"/>
        </g>
        <g transform="translate(38.543)">
          <g fill-rule="nonzero" transform="translate(74.426 42.369)">
            <rect width="25.096" height="7.095" x=".013" y="20.262" fill="#D98A6C" rx="3.547"/>
            <rect width="5.421" height="5.391" x="4.093" y="22.198" fill="#4B4B4B" rx="2.695"/>
            <rect width="24.331" height="7.095" x="21.955" y="14.603" fill="#FF9D87" rx=".964" transform="rotate(-32.087 34.12 18.15)"/>
            <path fill="#3AD7EF" d="M44.6696657,1.74450152 L45.8304886,1.30288431 C48.2583711,0.379233765 50.9753253,1.59865468 51.8989759,4.02653716 C52.0812749,4.50572324 52.1840016,5.0114912 52.2030911,5.52382685 L52.771463,20.7781547 C52.8130739,21.8949335 51.9414781,22.8339938 50.8246993,22.8756046 C50.7995958,22.87654 50.7744771,22.8770078 50.7493562,22.8770078 L41.7255373,22.8770078 C40.6079836,22.8770078 39.7020273,21.9710515 39.7020273,20.8534979 L39.7020273,8.94934261 C39.7020273,5.74946113 41.6789008,2.882292 44.6696657,1.74450152 Z" transform="rotate(60 46.237 11.936)"/>
          </g>
          <g fill-rule="nonzero" transform="translate(96.923 73.232)">
            <path fill="#1CB0F6" d="M-1.71372897,25.7515337 L49.3777678,25.7515337 C52.1716519,25.7515337 54.4365426,28.0164243 54.4365426,30.8103085 L54.4365426,30.8281525 C54.4365426,33.6220367 52.1716519,35.8869274 49.3777678,35.8869274 L-3.73723891,35.8869274 C-5.41356942,35.8869274 -6.77250381,34.527993 -6.77250381,32.8516625 L-6.77250381,30.8103085 C-6.77250381,28.0164243 -4.50761317,25.7515337 -1.71372897,25.7515337 Z" transform="rotate(-67.087 23.832 30.82)"/>
            <rect width="5.057" height="16.217" x="7.137" y="52.927" fill="#CD3131" rx="2.024" transform="rotate(-70.36 9.666 61.035)"/>
            <rect width="5.057" height="20.271" x="8.031" y="46.513" fill="#4B4B4B" rx="2.528" transform="rotate(-70.36 10.56 56.648)"/>
            <rect width="3.13" height="15.253" x="11.675" y="47.898" fill="#CD3131" rx="1.565"/>
          </g>
          <g transform="translate(48.179 64.567)">
            <g transform="translate(3.989 37.468)">
              <ellipse cx="97.624" cy="19.781" stroke="#4B4B4B" stroke-width="4.917" rx="19.75" ry="19.781"/>
              <g stroke="#C7C7C7" stroke-linecap="round" stroke-width="3.035" transform="translate(85.965 8.108)">
                <path d="M12.6419599,10.1353932 C17.9482508,10.1353932 22.2498495,5.82451147 22.2498495,0.506769273" transform="matrix(1 0 0 -1 0 10.642)"/>
                <path d="M0.505679179,23.3114055 C5.81197006,23.3114055 10.1135688,19.0005236 10.1135688,13.6827815" transform="matrix(-1 0 0 1 10.62 0)"/>
              </g>
              <g stroke="#C7C7C7" stroke-linecap="round" stroke-width="3.035" transform="rotate(65 6.783 18.884)">
                <path d="M12.6419599,10.1353932 C17.9482508,10.1353932 22.2498495,5.82451147 22.2498495,0.506769273" transform="matrix(1 0 0 -1 0 10.642)"/>
                <path d="M0.0164948436,21.9644866 C5.32278572,21.9644866 9.6243844,17.6536048 9.6243844,12.3358626" transform="matrix(-1 0 0 1 9.64 0)"/>
              </g>
              <ellipse cx="97.624" cy="19.78" fill="#C7C7C7" fill-rule="nonzero" rx="5.126" ry="5.134"/>
            </g>
            <rect width="51.843" height="5.58" x="26.094" y="26.307" fill="#F34848" fill-rule="nonzero" rx="2.79"/>
            <ellipse cx="62.198" cy="56.251" fill="#F34848" fill-rule="nonzero" rx="8.597" ry="8.615"/>
            <rect width="48.363" height="5.58" x="21.487" y="41.301" fill="#F34848" fill-rule="nonzero" rx="2.79" transform="rotate(-139.726 45.668 44.09)"/>
            <rect width="41.214" height="5.58" x="67.23" y="40.468" fill="#F34848" fill-rule="nonzero" rx="2.79" transform="rotate(-131.912 87.838 43.258)"/>
            <rect width="44.694" height="5.58" x="46.864" y="36.373" fill="#F34848" fill-rule="nonzero" rx="2.79" transform="rotate(-65.818 69.21 39.163)"/>
            <rect width="25.284" height="6.081" x="65.738" y="17.23" fill="#4B4B4B" fill-rule="nonzero" rx="3.041"/>
            <rect width="43.752" height="5.58" x="59.13" y="53.951" fill="#F34848" fill-rule="nonzero" rx="2.79"/>
            <ellipse cx="62.198" cy="56.251" fill="#CD3131" fill-rule="nonzero" rx="3.54" ry="3.547"/>
            <g transform="translate(0 37.468)">
              <ellipse cx="19.75" cy="19.781" stroke="#4B4B4B" stroke-width="4.917" rx="19.75" ry="19.781"/>
              <ellipse cx="19.75" cy="19.78" fill="#C7C7C7" fill-rule="nonzero" rx="5.126" ry="5.134"/>
            </g>
            <rect width="29.694" height="5.391" fill="#4B4B4B" fill-rule="nonzero" rx="2.695" transform="translate(17.098)"/>
          </g>
          <g fill-rule="nonzero" transform="translate(85.966 72.663)">
            <path fill="#1CB0F6" d="M-7.1628124,14.7864167 L25.8785648,14.7864167 C28.6773765,14.7864167 30.9462617,17.0553018 30.9462617,19.8541135 C30.9462617,22.6529252 28.6773765,24.9218103 25.8785648,24.9218103 L-2.09511556,24.9218103 C-4.89392724,24.9218103 -7.1628124,22.6529252 -7.1628124,19.8541135 L-7.1628124,14.7864167 Z" transform="rotate(-110.184 11.892 19.854)"/>
            <g transform="rotate(12 -124.415 57.262)">
              <rect width="5.057" height="20.271" x="6.866" y="-.97" fill="#4B4B4B" rx="2.528" transform="rotate(-136.728 9.394 9.165)"/>
              <rect width="5.057" height="16.217" x="9.931" y="4.291" fill="#CD3131" rx="2.024" transform="rotate(-137 12.46 12.4)"/>
              <rect width="3.13" height="8.508" x="13.98" y="9.917" fill="#CD3131" rx="1.565" transform="rotate(-50 15.544 14.171)"/>
            </g>
            <rect width="31.66" height="10.366" x="2.023" y="1.447" fill="#1CB0F6" rx="5.183"/>
          </g>
          <path fill="#FF9D87" fill-rule="nonzero" d="M72.3225896,62.63071 L78.7050119,62.63071 C81.2195076,62.63071 83.2579092,64.6691116 83.2579092,67.1836074 L83.2579092,68.2132063 C83.2579092,70.7277021 81.2195076,72.7661037 78.7050119,72.7661037 L73.8402221,72.7661037 C71.3257262,72.7661037 69.2873247,70.7277021 69.2873247,68.2132063 L69.2873247,65.6659749 C69.2873247,63.9896445 70.6462591,62.63071 72.3225896,62.63071 Z"/>
          <rect width="59.742" height="5.58" x="45.839" y="92.935" fill="#F34848" fill-rule="nonzero" rx="2.79" transform="rotate(106.818 75.71 95.725)"/>
          <rect width="20.591" height="5.391" x="76.401" y="64.567" fill="#4B4B4B" fill-rule="nonzero" rx="2.695"/>
          <path fill="#7AF0F2" fill-rule="nonzero" d="M120.187102,46.7762025 L124.720253,45.8725725 C130.100495,44.800085 135.331466,48.29221 136.403953,53.6724521 C136.463901,53.9731879 136.509891,54.2765386 136.541776,54.5815291 L139.000269,78.0983521 C139.244686,80.436336 137.669007,82.5760183 135.363815,83.0364498 L116.180078,86.8681458 C115.084171,87.0870387 114.018315,86.3760782 113.799422,85.2801713 C113.77238,85.1447822 113.759265,85.0069809 113.760282,84.8689215 L113.985673,54.2792793 C114.012604,50.624327 116.602574,47.4907357 120.187102,46.7762025 Z" transform="rotate(11.273 126.393 66.293)"/>
          <path fill="#1CB0F6" fill-rule="nonzero" d="M135.789313,71.65127 L136.436853,77.8453477 C136.68127,80.1833316 135.105592,82.3230139 132.800399,82.7834454 L113.616662,86.6151414 C112.520755,86.8340343 111.4549,86.1230738 111.236007,85.0271669 C111.208965,84.8917778 111.19585,84.7539765 111.196867,84.6159171 L111.257257,76.4198185 L135.789313,71.65127 Z" transform="rotate(11.273 123.83 79.153)"/>
          <path fill="#FFE25A" fill-rule="nonzero" d="M136.196494,13.5727976 L137.018096,13.5879803 C142.888158,13.6964555 147.558848,18.543018 147.450373,24.4130807 C147.422979,25.8954676 147.085802,27.3557328 146.4605,28.700062 L140.849839,40.7623857 C139.482274,43.7025053 136.26907,45.3125769 133.095283,44.6480381 C129.790854,43.9561448 127.189128,41.408039 126.42858,38.1187321 L124.181373,28.3997489 C122.675616,21.8874776 126.734199,15.3875821 133.246471,13.881826 C134.213421,13.6582494 135.204201,13.5544607 136.196494,13.5727976 Z"/>
          <rect width="35.397" height="18.244" x="111.894" y="10.849" fill="#FFE25A" fill-rule="nonzero" rx="9.122" transform="rotate(17 129.593 19.971)"/>
          <rect width="6.068" height="15.203" x="124.447" y="36.345" fill="#FFB59F" fill-rule="nonzero" rx="3.034" transform="rotate(3.184 127.481 43.946)"/>
          <ellipse cx="117.457" cy="27.573" fill="#FF9D87" fill-rule="nonzero" rx="3.54" ry="3.547"/>
          <path fill="#FFE25A" fill-rule="nonzero" d="M107.616164,7.54913146 L127.056345,7.54909261 C127.88762,7.54909261 128.561502,8.22297469 128.561502,9.05425035 C128.561502,9.05425035 128.561502,9.05425035 128.561502,9.05425035 C128.561502,14.9032953 123.114131,19.4053266 117.367239,19.4053266 C111.602195,19.4053266 106.166426,14.8740822 106.166426,8.99889769 C106.166426,8.99889769 106.166426,8.99889769 106.166426,8.99889769 C106.166426,8.19822951 106.815496,7.5491597 107.616164,7.5491597 L107.616164,7.54913146 Z" transform="rotate(109 117.364 13.477)"/>
          <path fill="#FFE25A" fill-rule="nonzero" d="M120.374174,8.55986717 L130.761436,8.5598234 C131.205617,8.5598234 131.565697,8.91990344 131.565697,9.36408471 C131.565697,9.36408471 131.565697,9.36408471 131.565697,9.36408471 C131.565697,12.4893557 128.655049,14.8948883 125.584361,14.8948883 C122.503972,14.8948883 119.599525,12.4737465 119.599525,9.33450858 C119.599525,9.33450858 119.599525,9.33450858 119.599525,9.33450858 C119.599525,8.90668156 119.946347,8.55985924 120.374174,8.55985924 L120.374174,8.55986717 Z" transform="rotate(109 125.583 11.727)"/>
          <path fill="#8BC43C" fill-rule="nonzero" d="M210.950333,136.715496 L221.337595,136.715453 C221.781776,136.715453 222.141856,137.075533 222.141856,137.519714 C222.141856,137.519714 222.141856,137.519714 222.141856,137.519714 C222.141856,140.644985 219.231208,143.050517 216.16052,143.050517 C213.080132,143.050517 210.175684,140.629376 210.175684,137.490138 C210.175684,137.490138 210.175684,137.490138 210.175684,137.490138 C210.175684,137.06231 210.522506,136.715489 210.950333,136.715489 L210.950333,136.715496 Z" transform="rotate(134 216.159 139.883)"/>
          <path fill="#8BC43C" fill-rule="nonzero" d="M205.168876,136.715496 L215.556138,136.715453 C216.000319,136.715453 216.360399,137.075533 216.360399,137.519714 C216.360399,137.519714 216.360399,137.519714 216.360399,137.519714 C216.360399,140.644985 213.449751,143.050517 210.379063,143.050517 C207.298675,143.050517 204.394227,140.629376 204.394227,137.490138 C204.394227,137.490138 204.394227,137.490138 204.394227,137.490138 C204.394227,137.06231 204.741049,136.715489 205.168876,136.715489 L205.168876,136.715496 Z" transform="scale(1 -1) rotate(-46 -119.166 0)"/>
          <path fill="#8BC43C" fill-rule="nonzero" d="M7.6357635,136.715496 L18.0230254,136.715453 C18.4672067,136.715453 18.8272867,137.075533 18.8272867,137.519714 C18.8272867,137.519714 18.8272867,137.519714 18.8272867,137.519714 C18.8272867,140.644985 15.9166387,143.050517 12.8459499,143.050517 C9.76556226,143.050517 6.86111415,140.629376 6.86111415,137.490138 C6.86111415,137.490138 6.86111415,137.490138 6.86111415,137.490138 C6.86111415,137.06231 7.20793647,136.715489 7.6357635,136.715489 L7.6357635,136.715496 Z" transform="rotate(134 12.844 139.883)"/>
          <path fill="#8BC43C" fill-rule="nonzero" d="M1.85430648,136.715496 L12.2415684,136.715453 C12.6857497,136.715453 13.0458297,137.075533 13.0458297,137.519714 C13.0458297,137.519714 13.0458297,137.519714 13.0458297,137.519714 C13.0458297,140.644985 10.1351817,143.050517 7.06449297,143.050517 C3.98410524,143.050517 1.07965713,140.629376 1.07965713,137.490138 C1.07965713,137.490138 1.07965713,137.490138 1.07965713,137.490138 C1.07965713,137.06231 1.42647945,136.715489 1.85430648,136.715489 L1.85430648,136.715496 Z" transform="scale(1 -1) rotate(-46 -322.48 0)"/>
          <path fill="#FFB59F" fill-rule="nonzero" d="M123.749726,16.6528054 L134.434106,20.5976509 C136.652076,21.416561 138.007004,23.6625513 137.697057,26.0064658 L136.518859,34.9163532 C135.760075,40.654505 130.867569,44.942641 125.079466,44.942641 C120.195687,44.942641 116.236604,40.9835565 116.236604,36.0997784 C116.236604,35.7050458 116.263033,35.3107563 116.315717,34.9195553 L118.33718,19.9091784 C118.635491,17.6940677 120.673022,16.1401946 122.888133,16.4385059 C123.182321,16.4781245 123.471257,16.54999 123.749726,16.6528054 Z"/>
          <path fill="#FF9D87" fill-rule="nonzero" d="M135.841207,35.546168 L135.841207,29.499883 C136.380174,29.1674109 137.014798,28.9756377 137.694118,28.9756377 C139.649067,28.9756377 141.233867,30.5638574 141.233867,32.5230255 C141.233867,34.4821937 139.649067,36.0704133 137.694118,36.0704133 C137.014798,36.0704133 136.380174,35.87864 135.841207,35.546168 Z" transform="rotate(10 138.538 32.523)"/>
          <path fill="#FFE25A" fill-rule="nonzero" d="M138.038416,19.060846 L138.038416,21.096655 C138.038416,23.3308827 136.227217,25.1420822 133.992989,25.1420822 C131.75876,25.1420822 129.947561,23.3308827 129.947561,21.096655 L129.947561,19.060846 L138.038416,19.060846 Z" transform="rotate(52 133.993 22.101)"/>
          <rect width="4.556" height="13.423" x="134.971" y="19.375" fill="#FFE25A" fill-rule="nonzero" rx="2.278" transform="rotate(15 137.249 26.087)"/>
          <rect width="3.034" height="7.095" x=".143" fill="#FF9D87" fill-rule="nonzero" rx="1.012" transform="rotate(9 -90.042 789.778)"/>
          <g fill-rule="nonzero" transform="translate(83.433 44.296)">
            <rect width="24.084" height="7.095" x="7.188" y="18.335" fill="#FFB59F" rx="3.547"/>
            <path fill="#FFB59F" d="M3.04863084,18.3347572 L9.43105309,18.3347572 C11.9455488,18.3347572 13.9839505,20.3731587 13.9839505,22.8876545 L13.9839505,23.9172535 C13.9839505,26.4317492 11.9455488,28.4701508 9.43105309,28.4701508 L4.56626329,28.4701508 C2.05176752,28.4701508 0.0133659399,26.4317492 0.0133659399,23.9172535 L0.0133659399,21.3700221 C0.0133659399,19.6936915 1.37230032,18.3347572 3.04863084,18.3347572 Z"/>
            <rect width="8.455" height="5.391" x="8.139" y="20.271" fill="#4B4B4B" rx="2.695"/>
            <rect width="27.118" height="7.095" x="23.521" y="12.452" fill="#FFB59F" rx="3.547" transform="rotate(-32.087 37.08 16)"/>
            <path fill="#3AD7EF" d="M46.3280422,2.04537472 C49.9586622,2.04537472 52.9018614,4.98857381 52.9018614,8.61919389 L52.9018614,17.252034 C52.9018614,18.3695877 51.9959051,19.275544 50.8783515,19.275544 L41.777733,19.275544 C40.6601793,19.275544 39.7542231,18.3695877 39.7542231,17.252034 L39.7542231,8.61919389 C39.7542231,4.98857381 42.6974221,2.04537472 46.3280422,2.04537472 Z" transform="rotate(60 46.328 10.66)"/>
          </g>
          <rect width="5.924" height="6.786" x="113.647" y="32.25" fill="#FFB59F" fill-rule="nonzero" rx="2.891" transform="rotate(9 116.61 35.643)"/>
          <rect width="2.595" height="3.491" x="114.923" y="33.907" fill="#A34242" fill-rule="nonzero" rx="1.298" transform="rotate(9 116.22 35.652)"/>
          <path stroke="#E78D7D" stroke-linecap="round" stroke-width=".964" d="M126.338725,25.1632272 C126.338725,26.4479954 126.659917,27.0903795 127.302302,27.0903795 C127.944685,27.0903795 128.265878,26.4479954 128.265878,25.1632272" transform="scale(1 -1) rotate(-7 -299.867 0)"/>
          <path stroke="#E78D7D" stroke-linecap="round" stroke-width=".964" d="M119.483444,24.089404 C119.483444,25.3741722 119.804635,26.0165563 120.44702,26.0165563 C121.089404,26.0165563 121.410596,25.3741722 121.410596,24.089404" transform="scale(1 -1) rotate(-7 -289.166 0)"/>
          <g fill="#BCE0FE" fill-rule="nonzero" transform="translate(82.565 14.903)">
            <g transform="translate(18.204 13.176)">
              <path d="M1.81979069,9.42789757 L2.7951798,9.83337661 C3.39907195,10.0844206 3.79258798,10.6741735 3.79258798,11.3281681 L3.79258798,12.2187801 C3.79258798,12.9450391 3.20383873,13.5337884 2.47757973,13.5337884 C2.30432535,13.5337884 2.13277869,13.4995518 1.97279729,13.4330459 L0.997408175,13.0275669 C0.393516028,12.7765229 7.38137326e-16,12.1867699 6.58046098e-16,11.5327755 L4.4408921e-16,10.6421633 C3.55148134e-16,9.9159044 0.588749249,9.32715511 1.31500825,9.32715511 C1.48826263,9.32715511 1.65980929,9.3613917 1.81979069,9.42789757 Z"/>
              <rect width="1.517" height="11.036" x="2.276" y="1.577" rx=".759"/>
              <path d="M3.43712648,0.561314169 L5.48940531,1.55304909 C5.76899227,1.68815556 5.94663957,1.97130297 5.94663957,2.28182291 L5.94663957,3.63714671 C5.94663957,4.08416819 5.58425706,4.44655069 5.13723559,4.44655069 C5.01527011,4.44655069 4.89488155,4.41898742 4.78506588,4.36592053 L2.73278705,3.37418562 C2.45320008,3.23907914 2.27555279,2.95593174 2.27555279,2.6454118 L2.27555279,1.29008799 C2.27555279,0.843066521 2.63793529,0.480684018 3.08495676,0.480684018 C3.20692224,0.480684018 3.3273108,0.508247284 3.43712648,0.561314169 Z"/>
            </g>
            <path d="M1.91315833,9.9204598 L2.97796664,10.3649404 C3.58069492,10.6165359 3.97318741,11.2056885 3.97318741,11.8588207 L3.97318741,12.8535219 C3.97318741,13.6162982 3.3548351,14.2346505 2.59205887,14.2346505 C2.40941253,14.2346505 2.22858011,14.1984231 2.06002908,14.1280651 L0.995220771,13.6835846 C0.392492491,13.431989 5.24074838e-16,12.8428366 4.4408921e-16,12.1897043 L4.4408921e-16,11.195003 C3.50676063e-16,10.4322268 0.61835231,9.8138745 1.38112854,9.8138745 C1.56377487,9.8138745 1.7446073,9.85010198 1.91315833,9.9204598 Z"/>
            <rect width="1.589" height="11.61" x="2.384" y="1.659" rx=".795"/>
            <path d="M9.06489566,13.2374978 L10.1297039,13.6819783 C10.7324323,13.9335739 11.1249247,14.5227264 11.1249247,15.1758586 L11.1249247,16.1705599 C11.1249247,16.9333362 10.5065724,17.5516884 9.74379621,17.5516884 C9.56114987,17.5516884 9.38031744,17.5154609 9.21176642,17.4451031 L8.1469581,17.0006225 C7.54422983,16.749027 7.15173733,16.1598744 7.15173733,15.5067422 L7.15173733,14.512041 C7.15173733,13.7492647 7.77008964,13.1309124 8.53286588,13.1309124 C8.71551221,13.1309124 8.89634463,13.1671399 9.06489566,13.2374978 Z"/>
            <rect width="1.589" height="11.61" x="9.536" y="4.976" rx=".795"/>
            <path d="M3.58772565,0.671746389 L10.703733,4.64258852 C10.9599469,4.78555985 11.1187277,5.05599076 11.1187277,5.34939553 L11.1187277,6.81264654 C11.1187277,7.25966801 10.7563453,7.62205051 10.3093238,7.62205051 C10.1712554,7.62205051 10.0354819,7.58673203 9.91491452,7.51945355 L2.79890718,3.54861141 C2.54269328,3.40564009 2.38391244,3.13520917 2.38391244,2.8418044 L2.38391244,1.37855339 C2.38391244,0.931531924 2.74629494,0.569149422 3.19331641,0.569149422 C3.33138485,0.569149422 3.46715825,0.604467911 3.58772565,0.671746389 Z"/>
          </g>
        </g>
      </g>
    </g>
  </g>
</svg>
